<?xml version="1.0" encoding="utf-8"?>
<!-- Generator: Adobe Illustrator 16.0.0, SVG Export Plug-In . SVG Version: 6.00 Build 0)  -->
<!DOCTYPE svg PUBLIC "-//W3C//DTD SVG 1.1//EN" "http://www.w3.org/Graphics/SVG/1.1/DTD/svg11.dtd">
<svg version="1.1" id="Layer_1" xmlns="http://www.w3.org/2000/svg" xmlns:xlink="http://www.w3.org/1999/xlink" x="0px" y="0px"
	 width="581.055px" height="115px" viewBox="0 0 581.055 115" enable-background="new 0 0 581.055 115" xml:space="preserve">
<g>
	<g>
		
			<linearGradient id="SVGID_1_" gradientUnits="userSpaceOnUse" x1="30.5862" y1="59.0371" x2="30.5862" y2="184.3479" gradientTransform="matrix(1 0 0 -1 -8.3599 139.0547)">
			<stop  offset="0" style="stop-color:#FFFFFF;stop-opacity:0"/>
			<stop  offset="0.0492" style="stop-color:#D3D3D3;stop-opacity:0.0966"/>
			<stop  offset="0.1176" style="stop-color:#9B9B9B;stop-opacity:0.231"/>
			<stop  offset="0.1866" style="stop-color:#6C6C6C;stop-opacity:0.3665"/>
			<stop  offset="0.2546" style="stop-color:#454545;stop-opacity:0.5001"/>
			<stop  offset="0.3216" style="stop-color:#272727;stop-opacity:0.6315"/>
			<stop  offset="0.387" style="stop-color:#111111;stop-opacity:0.76"/>
			<stop  offset="0.4503" style="stop-color:#040404;stop-opacity:0.8844"/>
			<stop  offset="0.5092" style="stop-color:#000000"/>
		</linearGradient>
		<path fill="url(#SVGID_1_)" d="M11.097,63.622l3.342,9.162h16.046l3.361-9.162h4.607l-13.24,35.903h-6.035L6,63.622H11.097z
			 M22.44,94.715l6.546-17.844H15.93L22.44,94.715z"/>
		
			<linearGradient id="SVGID_2_" gradientUnits="userSpaceOnUse" x1="63.1013" y1="59.0371" x2="63.1013" y2="184.3402" gradientTransform="matrix(1 0 0 -1 -8.3599 139.0547)">
			<stop  offset="0" style="stop-color:#FFFFFF;stop-opacity:0"/>
			<stop  offset="0.0492" style="stop-color:#D3D3D3;stop-opacity:0.0966"/>
			<stop  offset="0.1176" style="stop-color:#9B9B9B;stop-opacity:0.231"/>
			<stop  offset="0.1866" style="stop-color:#6C6C6C;stop-opacity:0.3665"/>
			<stop  offset="0.2546" style="stop-color:#454545;stop-opacity:0.5001"/>
			<stop  offset="0.3216" style="stop-color:#272727;stop-opacity:0.6315"/>
			<stop  offset="0.387" style="stop-color:#111111;stop-opacity:0.76"/>
			<stop  offset="0.4503" style="stop-color:#040404;stop-opacity:0.8844"/>
			<stop  offset="0.5092" style="stop-color:#000000"/>
		</linearGradient>
		<path fill="url(#SVGID_2_)" d="M45.869,65.786c1.603-1.908,3.951-2.861,7.045-2.861c1.876,0,3.52,0.411,4.93,1.234
			c1.379,0.807,2.629,2.082,3.751,3.829v-4.367h4.425v26.934h-4.425V75.439c0-2.635-0.689-4.697-2.068-6.189
			c-1.378-1.492-3.27-2.236-5.674-2.236c-2.005,0-3.499,0.635-4.484,1.903s-1.479,3.158-1.479,5.667v15.973h-4.425V74.25
			C43.464,70.516,44.266,67.693,45.869,65.786z"/>
		
			<linearGradient id="SVGID_3_" gradientUnits="userSpaceOnUse" x1="91.8352" y1="59.0371" x2="91.8352" y2="184.3355" gradientTransform="matrix(1 0 0 -1 -8.3599 139.0547)">
			<stop  offset="0" style="stop-color:#FFFFFF;stop-opacity:0"/>
			<stop  offset="0.0492" style="stop-color:#D3D3D3;stop-opacity:0.0966"/>
			<stop  offset="0.1176" style="stop-color:#9B9B9B;stop-opacity:0.231"/>
			<stop  offset="0.1866" style="stop-color:#6C6C6C;stop-opacity:0.3665"/>
			<stop  offset="0.2546" style="stop-color:#454545;stop-opacity:0.5001"/>
			<stop  offset="0.3216" style="stop-color:#272727;stop-opacity:0.6315"/>
			<stop  offset="0.387" style="stop-color:#111111;stop-opacity:0.76"/>
			<stop  offset="0.4503" style="stop-color:#040404;stop-opacity:0.8844"/>
			<stop  offset="0.5092" style="stop-color:#000000"/>
		</linearGradient>
		<path fill="url(#SVGID_3_)" d="M78.202,63.376c1.427-0.301,2.926-0.451,4.497-0.451c3.469,0,6.161,0.741,8.078,2.222
			c1.947,1.517,2.923,3.559,2.923,6.127c0,2.131-0.658,3.787-1.975,4.969c-1.313,1.181-3.552,2.105-6.711,2.775l-1.511,0.354
			c-2.347,0.535-3.887,1.068-4.622,1.604c-0.767,0.565-1.15,1.33-1.15,2.291c0,1.254,0.541,2.207,1.62,2.862
			c1.081,0.657,2.731,0.986,4.956,0.986c1.489,0,2.868-0.154,4.136-0.462c1.489-0.387,2.773-0.848,3.853-1.391v4.348
			c-1.143,0.531-2.458,0.938-3.949,1.221c-1.316,0.249-2.838,0.372-4.567,0.372c-3.36,0-5.941-0.709-7.743-2.127
			c-1.818-1.45-2.729-3.464-2.729-6.036c0-2.037,0.609-3.631,1.828-4.781c1.234-1.134,3.214-1.99,5.939-2.564l1.538-0.36
			c2.775-0.551,4.579-1.14,5.413-1.769c0.833-0.629,1.248-1.512,1.248-2.645c0.017-1.257-0.536-2.214-1.654-2.874
			c-1.186-0.688-2.792-1.034-4.823-1.034c-1.651,0-3.231,0.208-4.737,0.625c-1.603,0.434-3.207,1.043-4.809,1.83v-4.686
			C75.092,64.127,76.743,63.658,78.202,63.376z"/>
		
			<linearGradient id="SVGID_4_" gradientUnits="userSpaceOnUse" x1="114.1057" y1="59.0361" x2="114.1057" y2="184.3422" gradientTransform="matrix(1 0 0 -1 -8.3599 139.0547)">
			<stop  offset="0" style="stop-color:#FFFFFF;stop-opacity:0"/>
			<stop  offset="0.0492" style="stop-color:#D3D3D3;stop-opacity:0.0966"/>
			<stop  offset="0.1176" style="stop-color:#9B9B9B;stop-opacity:0.231"/>
			<stop  offset="0.1866" style="stop-color:#6C6C6C;stop-opacity:0.3665"/>
			<stop  offset="0.2546" style="stop-color:#454545;stop-opacity:0.5001"/>
			<stop  offset="0.3216" style="stop-color:#272727;stop-opacity:0.6315"/>
			<stop  offset="0.387" style="stop-color:#111111;stop-opacity:0.76"/>
			<stop  offset="0.4503" style="stop-color:#040404;stop-opacity:0.8844"/>
			<stop  offset="0.5092" style="stop-color:#000000"/>
		</linearGradient>
		<path fill="url(#SVGID_4_)" d="M100.6,87.115v-14.62c0-3.351,0.642-5.667,1.924-6.95c1.283-1.281,3.646-1.924,7.095-1.924h4.544
			v4.089h-4.558c-1.864,0-3.095,0.306-3.688,0.919c-0.596,0.645-0.894,2.028-0.894,4.148v14.337h9.139v3.44h-9.139v7.645H100.6
			v-7.645h-3.27v-3.44L100.6,87.115L100.6,87.115z"/>
		
			<linearGradient id="SVGID_5_" gradientUnits="userSpaceOnUse" x1="136.0256" y1="59.0361" x2="136.0256" y2="184.3436" gradientTransform="matrix(1 0 0 -1 -8.3599 139.0547)">
			<stop  offset="0" style="stop-color:#FFFFFF;stop-opacity:0"/>
			<stop  offset="0.0492" style="stop-color:#D3D3D3;stop-opacity:0.0966"/>
			<stop  offset="0.1176" style="stop-color:#9B9B9B;stop-opacity:0.231"/>
			<stop  offset="0.1866" style="stop-color:#6C6C6C;stop-opacity:0.3665"/>
			<stop  offset="0.2546" style="stop-color:#454545;stop-opacity:0.5001"/>
			<stop  offset="0.3216" style="stop-color:#272727;stop-opacity:0.6315"/>
			<stop  offset="0.387" style="stop-color:#111111;stop-opacity:0.76"/>
			<stop  offset="0.4503" style="stop-color:#040404;stop-opacity:0.8844"/>
			<stop  offset="0.5092" style="stop-color:#000000"/>
		</linearGradient>
		<path fill="url(#SVGID_5_)" d="M124.214,63.622v14.103c0,2.994,0.67,5.31,2.008,6.942c1.339,1.633,3.259,2.449,5.76,2.449
			c0.752,0,1.396-0.063,1.924-0.19c0.625-0.176,1.17-0.391,1.636-0.645v4.676c-0.161,0.033-0.569,0.1-1.228,0.197
			c-0.224,0.033-0.568,0.049-1.033,0.049c-2.149,0-3.96-0.407-5.436-1.223c-1.474-0.817-2.685-2.066-3.631-3.748v4.324h-4.423
			V63.622H124.214z"/>
		
			<linearGradient id="SVGID_6_" gradientUnits="userSpaceOnUse" x1="158.2297" y1="59.0371" x2="158.2297" y2="184.3312" gradientTransform="matrix(1 0 0 -1 -8.3599 139.0547)">
			<stop  offset="0" style="stop-color:#FFFFFF;stop-opacity:0"/>
			<stop  offset="0.0492" style="stop-color:#D3D3D3;stop-opacity:0.0966"/>
			<stop  offset="0.1176" style="stop-color:#9B9B9B;stop-opacity:0.231"/>
			<stop  offset="0.1866" style="stop-color:#6C6C6C;stop-opacity:0.3665"/>
			<stop  offset="0.2546" style="stop-color:#454545;stop-opacity:0.5001"/>
			<stop  offset="0.3216" style="stop-color:#272727;stop-opacity:0.6315"/>
			<stop  offset="0.387" style="stop-color:#111111;stop-opacity:0.76"/>
			<stop  offset="0.4503" style="stop-color:#040404;stop-opacity:0.8844"/>
			<stop  offset="0.5092" style="stop-color:#000000"/>
		</linearGradient>
		<path fill="url(#SVGID_6_)" d="M140.962,65.302c1.642-1.585,3.826-2.376,6.553-2.376c2.131,0,3.968,0.422,5.506,1.264
			c1.476,0.824,2.742,2.113,3.8,3.867v-4.434h4.425V78.99c0,4.103-0.971,7.173-2.91,9.21c-1.893,2.003-4.793,3.004-8.705,3.004
			c-1.444-0.017-2.926-0.183-4.45-0.497c-1.441-0.314-3.013-0.831-4.712-1.546v-4.146c1.41,0.762,2.821,1.293,4.231,1.599
			c1.539,0.335,3.03,0.503,4.473,0.503c2.438,0.016,4.312-0.51,5.627-1.578c1.346-1.096,2.02-2.598,2.02-4.503v-0.411h-6.203
			c-4.01,0-7.031-0.756-9.067-2.268c-2.036-1.513-3.053-3.741-3.053-6.687C138.498,69.009,139.319,66.886,140.962,65.302z
			 M144.99,75.979c1.347,0.789,3.823,1.183,7.431,1.183h4.399V76.21c0-2.795-0.737-5.026-2.212-6.694
			c-1.476-1.668-3.446-2.502-5.916-2.502c-1.812,0-3.227,0.444-4.243,1.332c-1.02,0.889-1.527,2.088-1.527,3.604
			C142.922,73.816,143.61,75.159,144.99,75.979z"/>
		
			<linearGradient id="SVGID_7_" gradientUnits="userSpaceOnUse" x1="180.884" y1="59.0371" x2="180.884" y2="184.3454" gradientTransform="matrix(1 0 0 -1 -8.3599 139.0547)">
			<stop  offset="0" style="stop-color:#FFFFFF;stop-opacity:0"/>
			<stop  offset="0.0492" style="stop-color:#D3D3D3;stop-opacity:0.0966"/>
			<stop  offset="0.1176" style="stop-color:#9B9B9B;stop-opacity:0.231"/>
			<stop  offset="0.1866" style="stop-color:#6C6C6C;stop-opacity:0.3665"/>
			<stop  offset="0.2546" style="stop-color:#454545;stop-opacity:0.5001"/>
			<stop  offset="0.3216" style="stop-color:#272727;stop-opacity:0.6315"/>
			<stop  offset="0.387" style="stop-color:#111111;stop-opacity:0.76"/>
			<stop  offset="0.4503" style="stop-color:#040404;stop-opacity:0.8844"/>
			<stop  offset="0.5092" style="stop-color:#000000"/>
		</linearGradient>
		<path fill="url(#SVGID_7_)" d="M174.738,63.622v37.417h-4.426V63.622H174.738z"/>
		
			<linearGradient id="SVGID_8_" gradientUnits="userSpaceOnUse" x1="194.5183" y1="59.0371" x2="194.5183" y2="184.3454" gradientTransform="matrix(1 0 0 -1 -8.3599 139.0547)">
			<stop  offset="0" style="stop-color:#FFFFFF;stop-opacity:0"/>
			<stop  offset="0.0492" style="stop-color:#D3D3D3;stop-opacity:0.0966"/>
			<stop  offset="0.1176" style="stop-color:#9B9B9B;stop-opacity:0.231"/>
			<stop  offset="0.1866" style="stop-color:#6C6C6C;stop-opacity:0.3665"/>
			<stop  offset="0.2546" style="stop-color:#454545;stop-opacity:0.5001"/>
			<stop  offset="0.3216" style="stop-color:#272727;stop-opacity:0.6315"/>
			<stop  offset="0.387" style="stop-color:#111111;stop-opacity:0.76"/>
			<stop  offset="0.4503" style="stop-color:#040404;stop-opacity:0.8844"/>
			<stop  offset="0.5092" style="stop-color:#000000"/>
		</linearGradient>
		<path fill="url(#SVGID_8_)" d="M188.372,63.622v26.935h-4.427V63.622H188.372z M188.372,95.438v5.602h-4.427v-5.602H188.372z"/>
		
			<linearGradient id="SVGID_9_" gradientUnits="userSpaceOnUse" x1="215.6301" y1="59.0371" x2="215.6301" y2="184.3312" gradientTransform="matrix(1 0 0 -1 -8.3599 139.0547)">
			<stop  offset="0" style="stop-color:#FFFFFF;stop-opacity:0"/>
			<stop  offset="0.0492" style="stop-color:#D3D3D3;stop-opacity:0.0966"/>
			<stop  offset="0.1176" style="stop-color:#9B9B9B;stop-opacity:0.231"/>
			<stop  offset="0.1866" style="stop-color:#6C6C6C;stop-opacity:0.3665"/>
			<stop  offset="0.2546" style="stop-color:#454545;stop-opacity:0.5001"/>
			<stop  offset="0.3216" style="stop-color:#272727;stop-opacity:0.6315"/>
			<stop  offset="0.387" style="stop-color:#111111;stop-opacity:0.76"/>
			<stop  offset="0.4503" style="stop-color:#040404;stop-opacity:0.8844"/>
			<stop  offset="0.5092" style="stop-color:#000000"/>
		</linearGradient>
		<path fill="url(#SVGID_9_)" d="M198.362,65.302c1.643-1.585,3.828-2.376,6.554-2.376c2.131,0,3.968,0.422,5.506,1.264
			c1.475,0.824,2.742,2.113,3.8,3.867v-4.434h4.424V78.99c0,4.103-0.97,7.173-2.909,9.21c-1.892,2.003-4.793,3.004-8.705,3.004
			c-1.442-0.017-2.927-0.183-4.449-0.497c-1.441-0.314-3.014-0.831-4.712-1.546v-4.146c1.41,0.762,2.82,1.293,4.23,1.599
			c1.54,0.335,3.031,0.503,4.475,0.503c2.437,0.016,4.312-0.51,5.627-1.578c1.346-1.096,2.02-2.598,2.02-4.503v-0.411h-6.204
			c-4.009,0-7.03-0.756-9.066-2.268c-2.035-1.513-3.054-3.741-3.054-6.687C195.897,69.009,196.719,66.886,198.362,65.302z
			 M202.39,75.979c1.347,0.789,3.824,1.183,7.431,1.183h4.401V76.21c0-2.795-0.738-5.026-2.213-6.694
			c-1.476-1.668-3.446-2.502-5.916-2.502c-1.812,0-3.227,0.444-4.244,1.332c-1.019,0.889-1.527,2.088-1.527,3.604
			C200.322,73.816,201.01,75.159,202.39,75.979z"/>
		
			<linearGradient id="SVGID_10_" gradientUnits="userSpaceOnUse" x1="247.1794" y1="59.0361" x2="247.1794" y2="184.3436" gradientTransform="matrix(1 0 0 -1 -8.3599 139.0547)">
			<stop  offset="0" style="stop-color:#FFFFFF;stop-opacity:0"/>
			<stop  offset="0.0492" style="stop-color:#D3D3D3;stop-opacity:0.0966"/>
			<stop  offset="0.1176" style="stop-color:#9B9B9B;stop-opacity:0.231"/>
			<stop  offset="0.1866" style="stop-color:#6C6C6C;stop-opacity:0.3665"/>
			<stop  offset="0.2546" style="stop-color:#454545;stop-opacity:0.5001"/>
			<stop  offset="0.3216" style="stop-color:#272727;stop-opacity:0.6315"/>
			<stop  offset="0.387" style="stop-color:#111111;stop-opacity:0.76"/>
			<stop  offset="0.4503" style="stop-color:#040404;stop-opacity:0.8844"/>
			<stop  offset="0.5092" style="stop-color:#000000"/>
		</linearGradient>
		<path fill="url(#SVGID_10_)" d="M231.967,63.622v15.067c0,2.635,0.687,4.697,2.06,6.189c1.373,1.491,3.266,2.236,5.673,2.236
			c2.008,0,3.504-0.629,4.492-1.893c0.987-1.263,1.481-3.146,1.481-5.652V63.622h4.425v16.256c0,3.67-0.803,6.492-2.407,8.464
			c-1.572,1.908-3.907,2.861-7.004,2.861c-1.912,0-3.574-0.41-4.985-1.232c-1.479-0.873-2.724-2.148-3.734-3.83v4.416h-4.425V63.622
			H231.967z"/>
	</g>
</g>
<g>
	
		<linearGradient id="SVGID_11_" gradientUnits="userSpaceOnUse" x1="295.7678" y1="59.9238" x2="295.7678" y2="185.0794" gradientTransform="matrix(1 0 0 -1 -8.3599 139.0547)">
		<stop  offset="0" style="stop-color:#FFFFFF;stop-opacity:0"/>
		<stop  offset="0.0492" style="stop-color:#D3D3D3;stop-opacity:0.0966"/>
		<stop  offset="0.1176" style="stop-color:#9B9B9B;stop-opacity:0.231"/>
		<stop  offset="0.1866" style="stop-color:#6C6C6C;stop-opacity:0.3665"/>
		<stop  offset="0.2546" style="stop-color:#454545;stop-opacity:0.5001"/>
		<stop  offset="0.3216" style="stop-color:#272727;stop-opacity:0.6315"/>
		<stop  offset="0.387" style="stop-color:#111111;stop-opacity:0.76"/>
		<stop  offset="0.4503" style="stop-color:#040404;stop-opacity:0.8844"/>
		<stop  offset="0.5092" style="stop-color:#000000"/>
	</linearGradient>
	<path fill="url(#SVGID_11_)" d="M278.771,62.754V76.92l14.292-14.166h11.577l-19.045,18.879l17.267,16.98h-10.734l-13.354-13.131
		v13.131h-8.598V62.754H278.771z"/>
	
		<linearGradient id="SVGID_12_" gradientUnits="userSpaceOnUse" x1="327.7463" y1="59.9229" x2="327.7463" y2="185.0805" gradientTransform="matrix(1 0 0 -1 -8.3599 139.0547)">
		<stop  offset="0" style="stop-color:#FFFFFF;stop-opacity:0"/>
		<stop  offset="0.0492" style="stop-color:#D3D3D3;stop-opacity:0.0966"/>
		<stop  offset="0.1176" style="stop-color:#9B9B9B;stop-opacity:0.231"/>
		<stop  offset="0.1866" style="stop-color:#6C6C6C;stop-opacity:0.3665"/>
		<stop  offset="0.2546" style="stop-color:#454545;stop-opacity:0.5001"/>
		<stop  offset="0.3216" style="stop-color:#272727;stop-opacity:0.6315"/>
		<stop  offset="0.387" style="stop-color:#111111;stop-opacity:0.76"/>
		<stop  offset="0.4503" style="stop-color:#040404;stop-opacity:0.8844"/>
		<stop  offset="0.5092" style="stop-color:#000000"/>
	</linearGradient>
	<path fill="url(#SVGID_12_)" d="M308.439,64.484c1.684-1.617,3.925-2.426,6.723-2.426c2.07,0,3.828,0.375,5.272,1.129
		c1.476,0.77,2.776,1.955,3.9,3.556v-3.989h8.598v15.348c0,4.324-1.064,7.438-3.193,9.344c-2.128,1.904-5.624,2.857-10.485,2.857
		c-1.946,0-3.789-0.111-5.527-0.335c-1.899-0.258-3.749-0.603-5.552-1.034v-6.558c1.48,0.802,2.956,1.362,4.423,1.683
		c1.625,0.353,3.322,0.529,5.092,0.529c2.294,0,3.972-0.312,5.032-0.938c1.075-0.625,1.613-1.625,1.613-3v-0.672h-5.056
		c-4.647,0-8.05-0.737-10.206-2.211c-2.155-1.474-3.233-3.787-3.233-6.941C305.84,68.232,306.705,66.119,308.439,64.484z
		 M315.812,73.973c0.882,0.592,2.23,0.889,4.044,0.889h4.479v-0.985c0.015-1.698-0.538-3.155-1.662-4.372
		c-1.061-1.152-2.423-1.729-4.094-1.729c-1.314,0-2.336,0.308-3.058,0.924c-0.723,0.617-1.083,1.469-1.083,2.559
		C314.439,72.441,314.896,73.348,315.812,73.973z"/>
	
		<linearGradient id="SVGID_13_" gradientUnits="userSpaceOnUse" x1="359.3557" y1="59.9229" x2="359.3557" y2="185.0815" gradientTransform="matrix(1 0 0 -1 -8.3599 139.0547)">
		<stop  offset="0" style="stop-color:#FFFFFF;stop-opacity:0"/>
		<stop  offset="0.0492" style="stop-color:#D3D3D3;stop-opacity:0.0966"/>
		<stop  offset="0.1176" style="stop-color:#9B9B9B;stop-opacity:0.231"/>
		<stop  offset="0.1866" style="stop-color:#6C6C6C;stop-opacity:0.3665"/>
		<stop  offset="0.2546" style="stop-color:#454545;stop-opacity:0.5001"/>
		<stop  offset="0.3216" style="stop-color:#272727;stop-opacity:0.6315"/>
		<stop  offset="0.387" style="stop-color:#111111;stop-opacity:0.76"/>
		<stop  offset="0.4503" style="stop-color:#040404;stop-opacity:0.8844"/>
		<stop  offset="0.5092" style="stop-color:#000000"/>
	</linearGradient>
	<path fill="url(#SVGID_13_)" d="M349.602,62.754V75.12c0,2.62,0.591,4.647,1.777,6.085c1.185,1.406,2.891,2.109,5.115,2.109
		c0.688,0,1.441-0.08,2.259-0.239c0.641-0.127,1.385-0.392,2.233-0.789v7.825c-0.64,0.096-1.137,0.146-1.489,0.146
		c-0.129,0-0.292,0.006-0.491,0.022c-0.201,0.017-0.349,0.024-0.444,0.024c-1.969,0-3.692-0.412-5.164-1.232
		c-1.44-0.792-2.706-2.08-3.794-3.869v4.454h-8.599V62.754H349.602z"/>
	
		<linearGradient id="SVGID_14_" gradientUnits="userSpaceOnUse" x1="385.1272" y1="59.9229" x2="385.1272" y2="185.0805" gradientTransform="matrix(1 0 0 -1 -8.3599 139.0547)">
		<stop  offset="0" style="stop-color:#FFFFFF;stop-opacity:0"/>
		<stop  offset="0.0492" style="stop-color:#D3D3D3;stop-opacity:0.0966"/>
		<stop  offset="0.1176" style="stop-color:#9B9B9B;stop-opacity:0.231"/>
		<stop  offset="0.1866" style="stop-color:#6C6C6C;stop-opacity:0.3665"/>
		<stop  offset="0.2546" style="stop-color:#454545;stop-opacity:0.5001"/>
		<stop  offset="0.3216" style="stop-color:#272727;stop-opacity:0.6315"/>
		<stop  offset="0.387" style="stop-color:#111111;stop-opacity:0.76"/>
		<stop  offset="0.4503" style="stop-color:#040404;stop-opacity:0.8844"/>
		<stop  offset="0.5092" style="stop-color:#000000"/>
	</linearGradient>
	<path fill="url(#SVGID_14_)" d="M365.818,64.484c1.685-1.617,3.924-2.426,6.722-2.426c2.071,0,3.828,0.375,5.273,1.129
		c1.477,0.77,2.777,1.955,3.901,3.556v-3.989h8.598v15.348c0,4.324-1.065,7.438-3.192,9.344c-2.128,1.904-5.624,2.857-10.485,2.857
		c-1.946,0-3.789-0.111-5.528-0.335c-1.898-0.258-3.749-0.603-5.552-1.034v-6.558c1.481,0.802,2.957,1.362,4.424,1.683
		c1.625,0.353,3.322,0.529,5.091,0.529c2.296,0,3.974-0.312,5.033-0.938c1.075-0.625,1.614-1.625,1.614-3v-0.672h-5.056
		c-4.646,0-8.051-0.737-10.205-2.211c-2.156-1.474-3.233-3.787-3.233-6.941C363.221,68.232,364.086,66.119,365.818,64.484z
		 M373.191,73.973c0.883,0.592,2.231,0.889,4.044,0.889h4.479v-0.985c0.014-1.698-0.539-3.155-1.663-4.372
		c-1.06-1.152-2.423-1.729-4.092-1.729c-1.317,0-2.337,0.308-3.059,0.924c-0.723,0.617-1.084,1.469-1.084,2.559
		C371.818,72.441,372.276,73.348,373.191,73.973z"/>
	
		<linearGradient id="SVGID_15_" gradientUnits="userSpaceOnUse" x1="419.1594" y1="59.9229" x2="419.1594" y2="185.0805" gradientTransform="matrix(1 0 0 -1 -8.3599 139.0547)">
		<stop  offset="0" style="stop-color:#FFFFFF;stop-opacity:0"/>
		<stop  offset="0.0492" style="stop-color:#D3D3D3;stop-opacity:0.0966"/>
		<stop  offset="0.1176" style="stop-color:#9B9B9B;stop-opacity:0.231"/>
		<stop  offset="0.1866" style="stop-color:#6C6C6C;stop-opacity:0.3665"/>
		<stop  offset="0.2546" style="stop-color:#454545;stop-opacity:0.5001"/>
		<stop  offset="0.3216" style="stop-color:#272727;stop-opacity:0.6315"/>
		<stop  offset="0.387" style="stop-color:#111111;stop-opacity:0.76"/>
		<stop  offset="0.4503" style="stop-color:#040404;stop-opacity:0.8844"/>
		<stop  offset="0.5092" style="stop-color:#000000"/>
	</linearGradient>
	<path fill="url(#SVGID_15_)" d="M400.146,65.807c2.49-2.5,6.048-3.748,10.676-3.748c4.629,0,8.188,1.248,10.679,3.748
		c2.488,2.496,3.733,5.959,3.733,10.385c0,4.43-1.246,7.889-3.733,10.377c-2.49,2.492-6.05,3.734-10.679,3.734
		c-4.628,0-8.187-1.248-10.676-3.746c-2.522-2.529-3.781-5.988-3.781-10.377C396.365,71.795,397.623,68.336,400.146,65.807z
		 M406.479,82.091c0.994,1.375,2.441,2.064,4.344,2.064c1.9,0,3.347-0.689,4.333-2.064c0.987-1.379,1.479-3.349,1.479-5.911
		c0-2.561-0.492-4.531-1.479-5.908c-0.986-1.375-2.435-2.065-4.345-2.065c-1.909,0-3.354,0.688-4.332,2.065
		c-1.011,1.41-1.517,3.377-1.517,5.908S405.468,80.68,406.479,82.091z"/>
	
		<linearGradient id="SVGID_16_" gradientUnits="userSpaceOnUse" x1="455.2708" y1="59.9229" x2="455.2708" y2="185.0807" gradientTransform="matrix(1 0 0 -1 -8.3599 139.0547)">
		<stop  offset="0" style="stop-color:#FFFFFF;stop-opacity:0"/>
		<stop  offset="0.0492" style="stop-color:#D3D3D3;stop-opacity:0.0966"/>
		<stop  offset="0.1176" style="stop-color:#9B9B9B;stop-opacity:0.231"/>
		<stop  offset="0.1866" style="stop-color:#6C6C6C;stop-opacity:0.3665"/>
		<stop  offset="0.2546" style="stop-color:#454545;stop-opacity:0.5001"/>
		<stop  offset="0.3216" style="stop-color:#272727;stop-opacity:0.6315"/>
		<stop  offset="0.387" style="stop-color:#111111;stop-opacity:0.76"/>
		<stop  offset="0.4503" style="stop-color:#040404;stop-opacity:0.8844"/>
		<stop  offset="0.5092" style="stop-color:#000000"/>
	</linearGradient>
	<path fill="url(#SVGID_16_)" d="M440.751,62.754v11.229l10.494-11.229h10.424L447.5,77.311l13.138,12.347h-9.993l-9.895-9.873
		v20.343h-8.599V62.754H440.751z"/>
	
		<linearGradient id="SVGID_17_" gradientUnits="userSpaceOnUse" x1="485.6165" y1="59.9229" x2="485.6165" y2="185.0805" gradientTransform="matrix(1 0 0 -1 -8.3599 139.0547)">
		<stop  offset="0" style="stop-color:#FFFFFF;stop-opacity:0"/>
		<stop  offset="0.0492" style="stop-color:#D3D3D3;stop-opacity:0.0966"/>
		<stop  offset="0.1176" style="stop-color:#9B9B9B;stop-opacity:0.231"/>
		<stop  offset="0.1866" style="stop-color:#6C6C6C;stop-opacity:0.3665"/>
		<stop  offset="0.2546" style="stop-color:#454545;stop-opacity:0.5001"/>
		<stop  offset="0.3216" style="stop-color:#272727;stop-opacity:0.6315"/>
		<stop  offset="0.387" style="stop-color:#111111;stop-opacity:0.76"/>
		<stop  offset="0.4503" style="stop-color:#040404;stop-opacity:0.8844"/>
		<stop  offset="0.5092" style="stop-color:#000000"/>
	</linearGradient>
	<path fill="url(#SVGID_17_)" d="M466.857,65.758c2.708-2.466,6.494-3.699,11.361-3.699c2.032,0,4.065,0.2,6.101,0.602
		c2.257,0.431,4.29,1.009,6.102,1.729v6.629c-2.131-1.139-4.084-1.953-5.861-2.449c-1.858-0.528-3.708-0.793-5.549-0.793
		c-2.257,0-3.996,0.505-5.212,1.514c-1.281,1.087-2.019,2.602-2.209,4.537h20.102v2.449c0,4.229-1.276,7.621-3.83,10.186
		c-2.554,2.562-5.929,3.842-10.124,3.842c-4.596,0-8.236-1.265-10.928-3.794c-2.658-2.513-3.987-5.956-3.987-10.329
		C462.823,71.684,464.168,68.207,466.857,65.758z M473.655,83.17c1.058,0.947,2.4,1.418,4.035,1.418
		c1.537,0,2.781-0.508,3.734-1.525c0.954-1.018,1.429-2.326,1.429-3.927h-11.168C471.908,80.832,472.566,82.177,473.655,83.17z"/>
</g>
<g enable-background="new    ">
	<path fill="#E8E8E8" d="M270.162,52.325V16.552h8.578v13.1l13.323-13.1h10.71l-17.227,16.94l18.999,18.833h-11.549L278.74,38.193
		v14.132H270.162z"/>
	<path fill="#E8E8E8" d="M305.743,44.274c0-3.146,1.075-5.455,3.226-6.925c2.151-1.47,5.545-2.204,10.182-2.204h5.043v-0.671
		c0-1.374-0.537-2.372-1.609-2.995c-1.057-0.623-2.73-0.935-5.02-0.935c-1.766,0-3.459,0.176-5.08,0.527
		c-1.463,0.319-2.934,0.879-4.412,1.677v-6.541c1.798-0.432,3.645-0.774,5.538-1.03c1.735-0.224,3.573-0.335,5.515-0.335
		c4.851,0,8.338,0.95,10.461,2.851c2.123,1.901,3.186,5.008,3.186,9.321v15.311h-8.578v-3.978c-1.121,1.598-2.418,2.779-3.891,3.546
		c-1.441,0.751-3.195,1.127-5.261,1.127c-2.79,0-5.026-0.807-6.706-2.421C306.608,48.971,305.743,46.862,305.743,44.274z
		 M314.322,43.843c0,1.087,0.36,1.938,1.081,2.552c0.721,0.615,1.736,0.923,3.051,0.923c1.664,0,3.025-0.575,4.082-1.726
		c1.121-1.213,1.674-2.667,1.658-4.36v-0.982h-4.468c-1.81,0-3.155,0.296-4.035,0.887C314.778,41.759,314.322,42.661,314.322,43.843
		z"/>
	<path fill="#E8E8E8" d="M340.823,52.325V25.489h8.578v4.442c1.086-1.784,2.348-3.071,3.785-3.859
		c1.47-0.819,3.188-1.229,5.151-1.229c0.097,0,0.243,0.008,0.443,0.023c0.2,0.017,0.363,0.024,0.491,0.024
		c0.352,0,0.847,0.048,1.486,0.145v7.808c-0.848-0.398-1.59-0.661-2.229-0.789c-0.814-0.159-1.566-0.239-2.253-0.239
		c-2.22,0-3.921,0.701-5.104,2.104c-1.183,1.434-1.772,3.458-1.772,6.071v12.335H340.823z"/>
	<path fill="#E8E8E8" d="M362.986,44.274c0-3.146,1.075-5.455,3.226-6.925c2.151-1.47,5.545-2.204,10.182-2.204h5.043v-0.671
		c0-1.374-0.537-2.372-1.609-2.995c-1.057-0.623-2.73-0.935-5.02-0.935c-1.766,0-3.459,0.176-5.08,0.527
		c-1.463,0.319-2.934,0.879-4.412,1.677v-6.541c1.798-0.432,3.645-0.774,5.538-1.03c1.735-0.224,3.573-0.335,5.515-0.335
		c4.851,0,8.338,0.95,10.461,2.851c2.123,1.901,3.186,5.008,3.186,9.321v15.311h-8.578v-3.978c-1.121,1.598-2.418,2.779-3.891,3.546
		c-1.441,0.751-3.195,1.127-5.261,1.127c-2.79,0-5.026-0.807-6.706-2.421C363.85,48.971,362.986,46.862,362.986,44.274z
		 M371.564,43.843c0,1.087,0.36,1.938,1.081,2.552c0.721,0.615,1.736,0.923,3.051,0.923c1.664,0,3.025-0.575,4.082-1.726
		c1.121-1.213,1.674-2.667,1.658-4.36v-0.982h-4.468c-1.81,0-3.155,0.296-4.035,0.887C372.02,41.759,371.564,42.661,371.564,43.843z
		"/>
	<path fill="#E8E8E8" d="M396.051,38.932c0-4.377,1.258-7.827,3.771-10.352c2.484-2.492,6.034-3.737,10.652-3.737
		c4.617,0,8.168,1.242,10.651,3.726c2.483,2.484,3.726,5.935,3.726,10.351c0,4.417-1.242,7.871-3.726,10.363
		s-6.034,3.738-10.651,3.738c-4.618,0-8.168-1.246-10.652-3.738C397.309,46.759,396.051,43.309,396.051,38.932z M404.629,38.932
		c0,2.523,0.504,4.488,1.512,5.894c0.977,1.374,2.418,2.061,4.322,2.061c1.905,0,3.35-0.687,4.334-2.061
		c0.984-1.373,1.477-3.338,1.477-5.894s-0.492-4.521-1.477-5.895s-2.425-2.061-4.322-2.061c-1.896,0-3.342,0.687-4.334,2.061
		C405.133,34.442,404.629,36.407,404.629,38.932z"/>
	<path fill="#E8E8E8" d="M431.752,52.325V15.042h8.578v20.295l9.872-9.848h9.968l-13.106,12.315L461.2,52.325h-10.399L440.33,41.124
		v11.201H431.752z"/>
	<path fill="#E8E8E8" d="M462.35,38.932c0-4.361,1.326-7.796,3.979-10.304c2.684-2.523,6.316-3.785,10.902-3.785
		c4.184,0,7.551,1.277,10.099,3.833c2.548,2.557,3.821,5.942,3.821,10.159v2.444h-20.055c0.191,1.933,0.926,3.442,2.205,4.528
		c1.213,1.007,2.947,1.51,5.199,1.51c1.836,0,3.682-0.264,5.535-0.791c1.772-0.494,3.721-1.31,5.846-2.443v6.613
		c-1.805,0.719-3.834,1.294-6.086,1.725c-2.029,0.399-4.058,0.6-6.086,0.6c-4.855,0-8.635-1.23-11.334-3.69
		C463.692,46.886,462.35,43.42,462.35,38.932z M471.192,35.984h11.143c0-1.598-0.477-2.903-1.426-3.918
		c-0.951-1.014-2.193-1.521-3.727-1.521c-1.629,0-2.971,0.472-4.025,1.414C472.071,32.949,471.415,34.291,471.192,35.984z"/>
</g>
<g enable-background="new    ">
	<path fill="#E8E8E8" d="M6.635,52.326l13.132-35.773h6.013l13.192,35.773h-4.59l-3.349-9.129H15.045l-3.331,9.129H6.635z
		 M16.53,39.124h13.009l-6.523-17.78L16.53,39.124z"/>
	<path fill="#E8E8E8" d="M43.966,41.735V25.49h4.409v15.915c0,2.499,0.491,4.381,1.473,5.646c0.982,1.265,2.472,1.896,4.469,1.896
		c2.396,0,4.281-0.743,5.655-2.229c1.374-1.485,2.061-3.541,2.061-6.166V25.49h4.409v26.836h-4.409v-4.351
		c-1.118,1.74-2.364,3.012-3.738,3.815c-1.406,0.82-3.043,1.23-4.912,1.23c-3.083,0-5.423-0.95-7.02-2.852
		C44.765,48.269,43.966,45.458,43.966,41.735z"/>
	<path fill="#E8E8E8" d="M73.643,51.17v-4.668c1.597,0.784,3.194,1.393,4.792,1.823c1.501,0.415,3.075,0.622,4.72,0.622
		c2.024,0,3.626-0.343,4.806-1.03c1.116-0.656,1.666-1.61,1.65-2.862c0-1.13-0.415-2.008-1.245-2.634s-2.627-1.214-5.393-1.764
		l-1.533-0.359c-2.716-0.572-4.688-1.425-5.918-2.556c-1.214-1.146-1.821-2.734-1.821-4.764c0-2.564,0.906-4.568,2.718-6.015
		c1.796-1.414,4.368-2.12,7.717-2.12c1.722,0,3.239,0.123,4.55,0.37c1.485,0.282,2.797,0.688,3.935,1.217v4.332
		c-1.074-0.538-2.353-1-3.837-1.385c-1.264-0.308-2.638-0.461-4.122-0.461c-2.216,0-3.862,0.327-4.938,0.981
		s-1.614,1.605-1.614,2.854c0,0.959,0.382,1.72,1.146,2.282c0.732,0.533,2.267,1.065,4.605,1.599l1.505,0.353
		c3.148,0.666,5.377,1.588,6.688,2.766c1.31,1.178,1.966,2.828,1.966,4.95c0,2.561-0.971,4.595-2.912,6.104
		c-1.91,1.478-4.593,2.216-8.049,2.216c-1.566,0-3.059-0.15-4.48-0.45C77.125,52.289,75.48,51.822,73.643,51.17z"/>
	<path fill="#E8E8E8" d="M97.638,28.917V25.49h3.259v-7.619h4.409v7.619h9.105v3.427h-9.105v14.284c0,2.115,0.296,3.493,0.889,4.136
		c0.592,0.61,1.817,0.916,3.676,0.916h4.541v4.073h-4.529c-3.435,0-5.791-0.639-7.068-1.917c-1.278-1.277-1.917-3.586-1.917-6.925
		V28.917H97.638z"/>
	<path fill="#E8E8E8" d="M120.017,52.326V25.49h4.409v4.308c0.942-1.676,2.148-2.921,3.618-3.734s3.274-1.22,5.415-1.22
		c0.463,0,0.807,0.016,1.03,0.049c0.655,0.099,1.062,0.164,1.222,0.197v4.66c-0.463-0.254-1.006-0.469-1.629-0.643
		c-0.527-0.127-1.166-0.19-1.917-0.19c-2.492,0-4.405,0.813-5.738,2.44c-1.334,1.628-2.001,3.934-2.001,6.918v14.051H120.017z"/>
	<path fill="#E8E8E8" d="M138.659,44.308c0-2.935,1.014-5.155,3.043-6.662c2.028-1.506,5.04-2.26,9.033-2.26h6.182v-0.41
		c0-1.897-0.671-3.394-2.013-4.487c-1.31-1.063-3.179-1.587-5.607-1.571c-1.438,0-2.923,0.167-4.457,0.501
		c-1.406,0.304-2.812,0.835-4.217,1.595V26.88c1.693-0.714,3.258-1.227,4.696-1.54c1.517-0.313,2.995-0.479,4.433-0.496
		c3.897,0,6.789,0.998,8.674,2.995c1.933,2.028,2.899,5.088,2.899,9.177v15.311h-4.409v-4.417c-1.054,1.746-2.316,3.031-3.786,3.854
		c-1.534,0.839-3.363,1.259-5.487,1.259c-2.716,0-4.892-0.79-6.529-2.369C139.477,49.073,138.659,46.959,138.659,44.308z
		 M143.068,44.03c0,1.509,0.507,2.705,1.521,3.59c1.014,0.886,2.424,1.327,4.229,1.327c2.46,0,4.424-0.83,5.895-2.492
		c1.469-1.663,2.204-3.887,2.204-6.672v-0.947h-4.385c-3.594,0-6.062,0.394-7.404,1.178
		C143.754,40.829,143.068,42.168,143.068,44.03z"/>
	<path fill="#E8E8E8" d="M170.359,52.326V15.043h4.409v37.283H170.359z"/>
	<path fill="#E8E8E8" d="M183.945,20.626v-5.583h4.409v5.583H183.945z M183.945,52.326V25.49h4.409v26.836H183.945z"/>
	<path fill="#E8E8E8" d="M195.853,44.308c0-2.935,1.014-5.155,3.043-6.662c2.028-1.506,5.04-2.26,9.033-2.26h6.182v-0.41
		c0-1.897-0.671-3.394-2.013-4.487c-1.31-1.063-3.179-1.587-5.607-1.571c-1.438,0-2.923,0.167-4.457,0.501
		c-1.406,0.304-2.812,0.835-4.217,1.595V26.88c1.693-0.714,3.258-1.227,4.696-1.54c1.517-0.313,2.995-0.479,4.433-0.496
		c3.897,0,6.789,0.998,8.674,2.995c1.933,2.028,2.899,5.088,2.899,9.177v15.311h-4.409v-4.417c-1.054,1.746-2.316,3.031-3.786,3.854
		c-1.534,0.839-3.363,1.259-5.487,1.259c-2.716,0-4.892-0.79-6.529-2.369C196.671,49.073,195.853,46.959,195.853,44.308z
		 M200.261,44.03c0,1.509,0.507,2.705,1.521,3.59c1.014,0.886,2.424,1.327,4.229,1.327c2.46,0,4.424-0.83,5.895-2.492
		c1.469-1.663,2.204-3.887,2.204-6.672v-0.947h-4.385c-3.594,0-6.062,0.394-7.404,1.178
		C200.948,40.829,200.261,42.168,200.261,44.03z"/>
	<path fill="#E8E8E8" d="M227.385,52.326V25.49h4.409v4.398c1.008-1.673,2.249-2.945,3.721-3.815
		c1.408-0.82,3.064-1.229,4.969-1.229c3.085,0,5.412,0.95,6.979,2.851c1.598,1.965,2.398,4.776,2.398,8.435v16.197h-4.409V36.435
		c0-2.497-0.492-4.375-1.476-5.632c-0.984-1.258-2.477-1.886-4.477-1.886c-2.4,0-4.285,0.743-5.653,2.229s-2.052,3.542-2.052,6.166
		v15.014H227.385z"/>
</g>
<g enable-background="new    ">
	<path fill="#E8E8E8" d="M507.38,52.326V39.113h3.583c1.305,0,2.291,0.339,2.957,1.016c0.679,0.689,1.018,1.675,1.018,2.958
		s-0.346,2.266-1.037,2.949c-0.68,0.677-1.684,1.016-3.013,1.016h-2.038v5.274H507.38z M508.85,45.547h2.039
		c0.744,0,1.324-0.217,1.738-0.649c0.402-0.41,0.604-1.017,0.604-1.819s-0.201-1.405-0.604-1.811
		c-0.42-0.433-0.999-0.649-1.738-0.649h-2.039V45.547z"/>
	<path fill="#E8E8E8" d="M516.027,43.68v-1.266h1.089v-2.813h1.469v2.813h3.045v1.266h-3.045v5.276c0,0.793,0.096,1.302,0.289,1.527
		s0.602,0.338,1.225,0.338h1.531v1.505h-1.523c-1.121,0-1.899-0.236-2.336-0.708s-0.654-1.324-0.654-2.558V43.68H516.027z"/>
	<path fill="#E8E8E8" d="M522.469,42.414h1.549l2.785,7.728l2.791-7.728h1.562l-3.913,10.834c-0.414,1.173-0.821,1.941-1.221,2.304
		c-0.398,0.363-0.924,0.544-1.572,0.544h-1.186v-1.504h0.876c0.401,0,0.708-0.098,0.92-0.294c0.23-0.213,0.478-0.675,0.743-1.389
		l0.273-0.754L522.469,42.414z"/>
	<path fill="#E8E8E8" d="M533.364,52.326v-2.248h1.682v2.248H533.364z"/>
	<path fill="#E8E8E8" d="M543.531,52.326V39.113H545v11.708h5.947v1.505H543.531z"/>
	<path fill="#E8E8E8" d="M551.416,43.68v-1.266h1.089v-2.813h1.47v2.813h3.044v1.266h-3.044v5.276c0,0.793,0.096,1.302,0.289,1.527
		c0.192,0.226,0.601,0.338,1.224,0.338h1.531v1.505h-1.522c-1.121,0-1.9-0.236-2.336-0.708c-0.438-0.472-0.655-1.324-0.655-2.558
		V43.68H551.416z"/>
	<path fill="#E8E8E8" d="M558.276,47.379c0-1.546,0.336-2.802,1.009-3.77c0.661-0.956,1.529-1.434,2.605-1.434
		c0.656,0,1.221,0.155,1.693,0.465c0.497,0.323,0.89,0.792,1.179,1.406v-5.491h1.47v13.771h-1.47v-1.614
		c-0.289,0.607-0.682,1.076-1.179,1.405c-0.473,0.311-1.037,0.466-1.693,0.466c-1.076,0-1.944-0.479-2.605-1.434
		C558.612,50.182,558.276,48.925,558.276,47.379z M559.744,47.379c0,1.131,0.225,2.037,0.674,2.719
		c0.426,0.654,1.037,0.98,1.836,0.98c0.773,0,1.385-0.325,1.834-0.976s0.674-1.559,0.674-2.724c0-1.153-0.225-2.057-0.674-2.71
		c-0.461-0.665-1.072-0.995-1.834-0.989c-0.787,0-1.398,0.33-1.836,0.989C559.969,45.356,559.744,46.26,559.744,47.379z"/>
	<path fill="#E8E8E8" d="M569.461,52.326v-2.248h1.682v2.248H569.461z"/>
</g>
</svg>
