<?xml version="1.0" encoding="utf-8"?>
<!-- Generator: Adobe Illustrator 16.0.0, SVG Export Plug-In . SVG Version: 6.00 Build 0)  -->
<!DOCTYPE svg PUBLIC "-//W3C//DTD SVG 1.1//EN" "http://www.w3.org/Graphics/SVG/1.1/DTD/svg11.dtd">
<svg version="1.1" id="Layer_1" xmlns="http://www.w3.org/2000/svg" xmlns:xlink="http://www.w3.org/1999/xlink" x="0px" y="0px"
	 width="26.542px" height="31px" viewBox="0 0 26.542 31" enable-background="new 0 0 26.542 31" xml:space="preserve">
<g id="Layer_1_1_" display="none">
	<g display="inline">
		<path fill="#FFFFFF" d="M3.167,23.418c0-6.891,0-13.779,0-20.668c6.889,0,13.778,0,20.667,0c0,6.889,0,13.777,0,20.668
			C16.945,23.418,10.056,23.418,3.167,23.418z M20.534,11.013c-0.033-0.123-0.048-0.175-0.062-0.226
			c-0.309-0.989-0.818-1.86-1.496-2.643c-0.199-0.231-0.391-0.25-0.629-0.106c-0.723,0.433-1.35,0.317-2.061-0.141
			c-0.479-0.308-0.777-0.592-0.8-1.149c-0.004-0.08-0.022-0.159-0.036-0.239c-0.099-0.573-0.114-0.634-0.694-0.678
			c-0.719-0.055-1.446-0.08-2.165-0.03c-0.917,0.064-0.944,0.099-1.027,0.974c-0.052,0.543-0.339,0.792-0.767,1.096
			C10.071,8.386,9.409,8.459,8.666,8.02c-0.264-0.156-0.47-0.077-0.618,0.156C7.606,8.877,7.126,9.56,6.753,10.297
			c-0.368,0.726-0.343,0.786,0.319,1.26c0.492,0.353,0.611,0.747,0.629,1.345c0.023,0.772-0.112,1.352-0.821,1.732
			c-0.383,0.205-0.415,0.527-0.222,0.89c0.341,0.638,0.644,1.3,1.041,1.897c0.516,0.783,0.558,0.785,1.423,0.42
			c0.459-0.194,0.796-0.17,1.254,0.093c0.716,0.407,1.298,0.803,1.235,1.737c-0.02,0.295,0.175,0.468,0.499,0.522
			c0.827,0.142,1.649,0.209,2.481,0.05c0.759-0.146,0.782-0.134,0.874-0.854c0.075-0.596,0.346-0.936,0.881-1.277
			c0.705-0.447,1.293-0.5,1.979-0.105c0.277,0.158,0.49,0.08,0.701-0.16c0.645-0.74,1.104-1.578,1.43-2.502
			c0.092-0.258,0.101-0.469-0.168-0.617c-0.744-0.422-1.018-1.003-0.94-1.899c0.045-0.536,0.11-0.913,0.562-1.2
			c0.155-0.101,0.305-0.222,0.438-0.351C20.432,11.191,20.491,11.076,20.534,11.013z"/>
		<path fill="#FFFFFF" d="M20.534,11.013c-0.043,0.062-0.103,0.178-0.189,0.261c-0.137,0.129-0.283,0.25-0.439,0.351
			c-0.447,0.287-0.516,0.664-0.561,1.2c-0.074,0.896,0.197,1.478,0.939,1.899c0.268,0.148,0.262,0.359,0.17,0.617
			c-0.326,0.924-0.787,1.762-1.431,2.502c-0.211,0.24-0.424,0.318-0.701,0.16c-0.688-0.395-1.272-0.342-1.979,0.105
			c-0.533,0.344-0.804,0.684-0.879,1.277c-0.092,0.721-0.115,0.709-0.874,0.854c-0.832,0.159-1.654,0.092-2.481-0.05
			c-0.324-0.058-0.519-0.229-0.499-0.522c0.063-0.937-0.519-1.33-1.235-1.737c-0.458-0.263-0.795-0.287-1.254-0.093
			c-0.865,0.365-0.907,0.363-1.423-0.42c-0.396-0.601-0.699-1.262-1.041-1.897c-0.193-0.36-0.161-0.685,0.222-0.89
			c0.709-0.38,0.844-0.959,0.821-1.732c-0.018-0.599-0.137-0.993-0.629-1.345c-0.662-0.474-0.687-0.534-0.319-1.26
			c0.374-0.737,0.853-1.42,1.295-2.121C8.193,7.943,8.4,7.864,8.664,8.02c0.744,0.438,1.406,0.365,2.131-0.149
			c0.427-0.303,0.715-0.553,0.767-1.096c0.083-0.875,0.11-0.91,1.027-0.974c0.719-0.05,1.446-0.025,2.165,0.03
			c0.58,0.044,0.596,0.104,0.694,0.678c0.014,0.08,0.032,0.159,0.036,0.239c0.021,0.557,0.317,0.841,0.8,1.149
			c0.711,0.458,1.338,0.574,2.059,0.141c0.24-0.144,0.432-0.125,0.631,0.106c0.678,0.783,1.188,1.654,1.496,2.643
			C20.486,10.838,20.5,10.891,20.534,11.013z M13.554,16.01c1.365,0.008,2.917-1.043,2.971-2.998
			c0.043-1.593-1.394-2.983-2.991-2.992c-1.64-0.009-3.029,1.406-2.998,3.054C10.566,14.709,11.92,16.027,13.554,16.01z"/>
		<path fill="#FFFFFF" d="M13.554,16.01c-1.634,0.018-2.988-1.301-3.019-2.937c-0.031-1.647,1.358-3.062,2.998-3.054
			c1.599,0.009,3.035,1.399,2.99,2.992C16.471,14.967,14.919,16.018,13.554,16.01z"/>
	</g>
	<path display="inline" d="M20.534,7.993c-0.043,0.062-0.103,0.178-0.189,0.261c-0.137,0.129-0.283,0.25-0.439,0.351
		c-0.447,0.287-0.516,0.664-0.561,1.2c-0.074,0.896,0.197,1.478,0.939,1.898c0.268,0.15,0.262,0.361,0.17,0.619
		c-0.326,0.922-0.787,1.761-1.431,2.502c-0.211,0.24-0.424,0.318-0.701,0.16c-0.688-0.395-1.272-0.342-1.979,0.106
		c-0.533,0.343-0.804,0.683-0.879,1.276c-0.092,0.722-0.115,0.709-0.874,0.854c-0.832,0.159-1.654,0.09-2.481-0.051
		c-0.324-0.056-0.519-0.229-0.499-0.521c0.063-0.938-0.519-1.332-1.235-1.738c-0.458-0.262-0.795-0.286-1.254-0.094
		c-0.865,0.365-0.907,0.363-1.423-0.418c-0.396-0.602-0.699-1.264-1.041-1.898c-0.193-0.36-0.161-0.683,0.222-0.888
		c0.709-0.381,0.844-0.96,0.821-1.732C7.681,9.282,7.562,8.888,7.07,8.536c-0.662-0.474-0.687-0.534-0.319-1.26
		c0.374-0.737,0.853-1.42,1.295-2.121c0.149-0.231,0.355-0.311,0.619-0.154c0.744,0.438,1.406,0.365,2.131-0.149
		c0.427-0.303,0.715-0.553,0.767-1.096c0.083-0.875,0.11-0.91,1.027-0.974c0.719-0.05,1.446-0.025,2.165,0.03
		c0.58,0.044,0.597,0.104,0.694,0.678c0.014,0.08,0.031,0.159,0.035,0.239c0.022,0.557,0.32,0.841,0.8,1.149
		c0.713,0.458,1.338,0.574,2.061,0.141c0.238-0.144,0.43-0.125,0.631,0.106c0.676,0.783,1.188,1.654,1.496,2.643
		C20.486,7.818,20.5,7.871,20.534,7.993z M13.554,12.99c1.365,0.008,2.917-1.043,2.971-2.999c0.043-1.593-1.394-2.983-2.991-2.992
		c-1.64-0.009-3.029,1.406-2.998,3.054C10.566,11.689,11.92,13.007,13.554,12.99z"/>
	<g display="inline">
		<path fill="none" d="M3.167,20.668c0-6.891,0-13.779,0-20.668c6.889,0,13.778,0,20.667,0c0,6.889,0,13.777,0,20.668
			C16.945,20.668,10.056,20.668,3.167,20.668z M20.534,8.264c-0.033-0.123-0.048-0.175-0.062-0.226
			c-0.309-0.989-0.818-1.86-1.496-2.643c-0.199-0.231-0.391-0.25-0.629-0.106c-0.723,0.433-1.35,0.317-2.061-0.141
			c-0.479-0.308-0.777-0.592-0.8-1.149c-0.004-0.08-0.022-0.159-0.036-0.239c-0.099-0.573-0.114-0.634-0.694-0.678
			c-0.719-0.055-1.446-0.08-2.165-0.03c-0.917,0.064-0.944,0.099-1.027,0.974c-0.052,0.543-0.339,0.792-0.767,1.096
			C10.071,5.637,9.409,5.71,8.666,5.271C8.401,5.116,8.195,5.194,8.047,5.428C7.605,6.129,7.125,6.812,6.752,7.549
			c-0.368,0.726-0.343,0.786,0.319,1.26C7.563,9.162,7.682,9.556,7.7,10.154c0.023,0.772-0.112,1.352-0.821,1.732
			c-0.383,0.205-0.415,0.527-0.222,0.888c0.341,0.638,0.644,1.3,1.041,1.899c0.516,0.782,0.558,0.784,1.423,0.419
			c0.459-0.193,0.796-0.169,1.254,0.092c0.716,0.408,1.298,0.803,1.235,1.739c-0.02,0.294,0.175,0.468,0.499,0.522
			c0.827,0.141,1.649,0.209,2.481,0.05c0.758-0.146,0.782-0.134,0.874-0.854c0.075-0.595,0.345-0.936,0.88-1.274
			c0.705-0.449,1.293-0.501,1.979-0.107c0.277,0.158,0.492,0.08,0.701-0.159c0.645-0.742,1.104-1.581,1.432-2.503
			c0.092-0.258,0.099-0.468-0.17-0.618c-0.742-0.422-1.016-1.004-0.938-1.898c0.045-0.536,0.11-0.913,0.559-1.2
			c0.158-0.101,0.306-0.222,0.441-0.351C20.432,8.441,20.491,8.326,20.534,8.264z"/>
		
			<linearGradient id="SVGID_1_" gradientUnits="userSpaceOnUse" x1="30.2427" y1="779.9199" x2="30.2427" y2="770.793" gradientTransform="matrix(1 0 0 1 -16.7197 -765.8906)">
			<stop  offset="0" style="stop-color:#FFFFFF"/>
			<stop  offset="1" style="stop-color:#A3A3A3"/>
		</linearGradient>
		<path fill="url(#SVGID_1_)" d="M20.534,8.264c-0.043,0.062-0.103,0.178-0.189,0.261c-0.137,0.129-0.283,0.25-0.439,0.351
			c-0.447,0.287-0.516,0.664-0.561,1.2c-0.074,0.896,0.197,1.478,0.939,1.898c0.268,0.15,0.262,0.36,0.17,0.618
			c-0.326,0.923-0.787,1.762-1.431,2.502c-0.211,0.241-0.424,0.319-0.701,0.161c-0.688-0.396-1.272-0.342-1.979,0.106
			c-0.533,0.342-0.804,0.683-0.879,1.275c-0.092,0.723-0.115,0.709-0.874,0.854c-0.832,0.159-1.654,0.091-2.481-0.05
			c-0.324-0.058-0.519-0.229-0.499-0.522c0.063-0.937-0.519-1.331-1.235-1.739c-0.458-0.261-0.795-0.285-1.254-0.092
			c-0.865,0.365-0.907,0.363-1.423-0.419c-0.396-0.601-0.699-1.263-1.041-1.899c-0.193-0.359-0.161-0.683,0.222-0.888
			c0.709-0.381,0.844-0.96,0.821-1.732C7.681,9.553,7.562,9.159,7.07,8.807c-0.662-0.474-0.687-0.534-0.319-1.26
			c0.374-0.737,0.853-1.42,1.295-2.121c0.149-0.232,0.355-0.31,0.619-0.154c0.744,0.438,1.406,0.365,2.131-0.149
			c0.427-0.303,0.715-0.553,0.767-1.096c0.083-0.875,0.11-0.91,1.027-0.974c0.719-0.05,1.446-0.025,2.165,0.03
			c0.58,0.044,0.597,0.104,0.694,0.678C15.463,3.841,15.48,3.92,15.484,4c0.022,0.557,0.32,0.841,0.8,1.149
			c0.713,0.458,1.338,0.574,2.061,0.141c0.238-0.144,0.43-0.125,0.631,0.106c0.676,0.783,1.188,1.654,1.496,2.643
			C20.486,8.089,20.5,8.141,20.534,8.264z M13.554,13.261c1.365,0.009,2.917-1.043,2.971-2.999c0.043-1.593-1.394-2.983-2.991-2.992
			c-1.64-0.009-3.029,1.406-2.998,3.054C10.566,11.96,11.92,13.277,13.554,13.261z"/>
		<path display="none" fill="none" d="M13.554,13.261c-1.634,0.017-2.988-1.301-3.019-2.937c-0.031-1.647,1.358-3.062,2.998-3.054
			c1.599,0.009,3.035,1.399,2.99,2.992C16.471,12.218,14.919,13.27,13.554,13.261z"/>
	</g>
</g>
<g id="Layer_2" display="none">
	<polygon display="inline" points="10.307,0 12.74,7.488 20.614,7.488 14.244,12.116 16.676,19.605 10.307,14.977 3.937,19.605 
		6.37,12.116 0,7.488 7.874,7.488 	"/>
	
		<linearGradient id="SVGID_2_" gradientUnits="userSpaceOnUse" x1="18.6665" y1="32.7529" x2="18.6665" y2="47.5671" gradientTransform="matrix(1 0 0 -1 -8.3599 51.0547)">
		<stop  offset="0" style="stop-color:#FFFFFF"/>
		<stop  offset="1" style="stop-color:#A8A8A8"/>
	</linearGradient>
	<polygon display="inline" fill="url(#SVGID_2_)" points="10.307,0.521 12.74,8.01 20.614,8.01 14.244,12.638 16.676,20.126 
		10.307,15.498 3.937,20.126 6.37,12.638 0,8.01 7.874,8.01 	"/>
</g>
<g id="Layer_3" display="none">
	<g display="inline">
		<path d="M13.064,11.453c-0.345-0.147-0.448-0.11-0.624,0.204c-0.399,0.725-0.8,1.447-1.199,2.172
			c-0.178,0.317-0.139,0.442,0.187,0.614c0.079,0.045,0.16,0.089,0.255,0.142c-0.128,0.229-0.251,0.448-0.371,0.668
			c-0.112,0.206-0.083,0.373,0.079,0.465c0.162,0.091,0.313,0.026,0.433-0.185c0.123-0.219,0.246-0.438,0.373-0.663
			c0.125,0.065,0.234,0.128,0.345,0.185c0.196,0.101,0.352,0.064,0.457-0.123c0.444-0.797,0.884-1.597,1.322-2.396
			c0.094-0.169,0.047-0.32-0.113-0.431c-0.043-0.03-0.088-0.055-0.146-0.09c0.031-0.063,0.059-0.121,0.09-0.178
			c0.357-0.647,0.721-1.292,1.078-1.941c0.354-0.644,0.545-1.324,0.539-2.068c-0.013-1.416,0.004-2.833,0.008-4.25
			c0-0.051,0-0.104,0-0.218c0.074,0.092,0.121,0.141,0.16,0.193c0.981,1.33,1.565,2.812,1.722,4.459
			c0.405,4.371-2.396,8.349-6.643,9.427c-4.976,1.265-10.028-2-10.882-7.065C-0.74,5.195,2.824,0.826,7.448,0.115
			c2.552-0.39,4.871,0.216,6.919,1.816c0.199,0.157,0.281,0.312,0.277,0.575c-0.018,1.668-0.033,3.335-0.004,5.004
			c0.012,0.771-0.16,1.458-0.555,2.113C13.73,10.219,13.407,10.834,13.064,11.453z M8.81,5.564C6.998,5.568,5.53,7.038,5.528,8.853
			c0,1.81,1.472,3.285,3.281,3.287c1.814,0.001,3.288-1.466,3.29-3.279C12.101,7.031,10.635,5.563,8.81,5.564z M1.627,6.015
			c0.181-0.007,0.257-0.128,0.324-0.276c0.805-1.787,2.113-3.062,3.913-3.835c0.054-0.023,0.13-0.035,0.156-0.078
			c0.059-0.088,0.14-0.204,0.118-0.284c-0.022-0.093-0.133-0.187-0.23-0.234C5.85,1.279,5.743,1.323,5.667,1.355
			C4.238,1.949,3.064,2.869,2.188,4.146C1.884,4.59,1.646,5.081,1.395,5.561C1.278,5.783,1.409,6.008,1.627,6.015z M6.388,2.463
			C6.283,2.498,6.219,2.514,6.16,2.54C4.516,3.238,3.323,4.4,2.586,6.029C2.571,6.064,2.554,6.101,2.543,6.14
			C2.497,6.296,2.555,6.419,2.695,6.486c0.142,0.069,0.273,0.026,0.366-0.102c0.035-0.047,0.055-0.105,0.08-0.16
			c0.664-1.446,1.725-2.483,3.183-3.12c0.066-0.028,0.16-0.045,0.19-0.098c0.054-0.093,0.114-0.22,0.091-0.313
			C6.582,2.602,6.46,2.533,6.388,2.463z M3.993,7.019c0.142,0.002,0.225-0.066,0.312-0.256c0.527-1.15,1.373-1.973,2.53-2.479
			c0.047-0.021,0.114-0.032,0.141-0.07C7.032,4.131,7.114,4.028,7.1,3.947C7.086,3.855,6.993,3.748,6.905,3.708
			C6.833,3.672,6.711,3.703,6.627,3.739c-1.31,0.558-2.261,1.486-2.855,2.78C3.75,6.567,3.727,6.616,3.715,6.666
			C3.675,6.846,3.811,7.017,3.993,7.019z"/>
		<path d="M11.391,8.849c0.005,1.424-1.139,2.574-2.569,2.578c-1.426,0.005-2.58-1.138-2.583-2.562
			c-0.003-1.433,1.15-2.597,2.578-2.597C10.237,6.27,11.385,7.419,11.391,8.849z M9.757,8.84C9.752,8.314,9.33,7.903,8.804,7.909
			C8.28,7.914,7.867,8.339,7.871,8.863C7.874,9.387,8.298,9.8,8.825,9.795C9.348,9.792,9.761,9.368,9.757,8.84z"/>
	</g>
	<g display="inline">
		
			<linearGradient id="SVGID_3_" gradientUnits="userSpaceOnUse" x1="17.2095" y1="35.8047" x2="17.2095" y2="48.8053" gradientTransform="matrix(1 0 0 -1 -8.3599 51.0547)">
			<stop  offset="0" style="stop-color:#FFFFFF"/>
			<stop  offset="1" style="stop-color:#A8A8A8"/>
		</linearGradient>
		<path fill="url(#SVGID_3_)" d="M13.064,11.786c-0.345-0.147-0.448-0.11-0.624,0.204c-0.399,0.725-0.8,1.447-1.199,2.172
			c-0.178,0.318-0.139,0.443,0.187,0.615c0.079,0.043,0.16,0.088,0.255,0.141c-0.128,0.23-0.251,0.448-0.371,0.668
			c-0.112,0.206-0.083,0.373,0.079,0.465s0.313,0.026,0.433-0.185c0.123-0.22,0.246-0.437,0.373-0.663
			c0.125,0.066,0.234,0.128,0.345,0.186c0.196,0.1,0.352,0.063,0.457-0.123c0.444-0.798,0.884-1.598,1.322-2.397
			c0.094-0.169,0.047-0.32-0.113-0.431c-0.043-0.03-0.088-0.055-0.146-0.09c0.031-0.063,0.059-0.121,0.09-0.178
			c0.357-0.647,0.721-1.292,1.078-1.941c0.354-0.644,0.545-1.324,0.539-2.068c-0.013-1.416,0.004-2.833,0.008-4.25
			c0-0.051,0-0.104,0-0.218c0.074,0.092,0.121,0.141,0.16,0.193c0.981,1.33,1.565,2.812,1.722,4.459
			c0.405,4.371-2.396,8.35-6.643,9.426C6.04,19.035,0.988,15.771,0.134,10.705C-0.74,5.528,2.824,1.159,7.448,0.448
			c2.552-0.39,4.871,0.216,6.919,1.816c0.199,0.157,0.281,0.312,0.277,0.575c-0.018,1.668-0.033,3.335-0.004,5.004
			c0.012,0.77-0.16,1.458-0.555,2.113C13.73,10.552,13.407,11.167,13.064,11.786z M8.81,5.897C6.998,5.901,5.53,7.371,5.528,9.186
			c0,1.81,1.472,3.285,3.281,3.287c1.814,0.001,3.288-1.466,3.29-3.279C12.101,7.364,10.635,5.896,8.81,5.897z M1.627,6.348
			C1.808,6.341,1.884,6.22,1.951,6.072C2.757,4.285,4.064,3.01,5.864,2.237c0.054-0.023,0.13-0.035,0.156-0.078
			c0.059-0.088,0.14-0.204,0.118-0.284c-0.022-0.093-0.133-0.187-0.23-0.234C5.85,1.612,5.743,1.656,5.667,1.688
			C4.238,2.282,3.064,3.202,2.188,4.479C1.884,4.923,1.646,5.414,1.395,5.894C1.278,6.116,1.409,6.341,1.627,6.348z M6.388,2.796
			C6.283,2.831,6.219,2.847,6.16,2.873c-1.644,0.698-2.836,1.86-3.573,3.489C2.571,6.397,2.554,6.434,2.543,6.473
			C2.497,6.629,2.555,6.752,2.695,6.819c0.142,0.069,0.273,0.026,0.366-0.102c0.035-0.047,0.055-0.105,0.08-0.16
			c0.664-1.446,1.725-2.483,3.183-3.12c0.066-0.028,0.16-0.045,0.19-0.098c0.054-0.093,0.114-0.22,0.091-0.313
			C6.582,2.935,6.46,2.866,6.388,2.796z M3.993,7.352c0.142,0.002,0.225-0.066,0.312-0.256c0.527-1.15,1.373-1.973,2.53-2.479
			c0.047-0.021,0.114-0.032,0.141-0.07C7.032,4.464,7.114,4.361,7.1,4.28C7.086,4.188,6.993,4.081,6.905,4.041
			C6.833,4.005,6.711,4.036,6.627,4.072c-1.31,0.558-2.261,1.486-2.855,2.78C3.75,6.9,3.727,6.949,3.715,6.999
			C3.675,7.179,3.811,7.35,3.993,7.352z"/>
		<path d="M11.391,9.182c0.005,1.424-1.139,2.574-2.569,2.578c-1.426,0.005-2.58-1.138-2.583-2.562
			c-0.003-1.433,1.15-2.597,2.578-2.597C10.237,6.603,11.385,7.752,11.391,9.182z M9.757,9.173C9.752,8.647,9.33,8.236,8.804,8.242
			C8.28,8.247,7.867,8.672,7.871,9.196c0.003,0.524,0.427,0.937,0.955,0.932C9.348,10.125,9.761,9.701,9.757,9.173z"/>
	</g>
</g>
<g id="Layer_4">
	<g>
		<path d="M7.392,0.675c0.149,0.036,0.296,0.07,0.442,0.111c1.407,0.383,2.385,1.632,2.391,3.088c0.009,2.444,0.013,4.89,0,7.333
			c-0.01,1.731-1.354,3.1-3.092,3.193c-1.639,0.086-3.096-1.175-3.296-2.859c-0.019-0.158-0.029-0.318-0.029-0.479
			C3.806,8.713,3.815,6.368,3.804,4.021c-0.009-1.81,1.271-3.109,2.761-3.313c0.027-0.004,0.052-0.021,0.077-0.033
			C6.891,0.675,7.143,0.675,7.392,0.675z"/>
		<path d="M2.713,22.068c0-0.709,0-1.418,0-2.149c1.069,0,2.131,0,3.206,0c0-0.759,0-1.493,0-2.221
			c-0.39-0.077-0.783-0.134-1.164-0.233c-2.249-0.585-3.989-2.611-4.216-4.922c-0.054-0.544-0.035-1.098-0.04-1.648
			C0.493,10.312,0.497,9.728,0.497,9.13c0.721,0,1.426,0,2.154,0c0,0.087,0,0.171,0,0.253c0.002,0.89-0.027,1.784,0.013,2.671
			c0.091,1.979,1.674,3.459,3.657,3.458c0.646,0,1.302,0.041,1.938-0.042c1.824-0.243,3.112-1.759,3.124-3.608
			c0.003-0.829,0-1.656,0-2.486c0-0.082,0-0.164,0-0.253c0.726,0,1.427,0,2.124,0c0.01,0.021,0.023,0.032,0.023,0.043
			c-0.011,1.134,0.077,2.279-0.053,3.4c-0.257,2.247-1.516,3.813-3.595,4.687c-0.55,0.229-1.158,0.323-1.771,0.487
			c0,0.673,0,1.404,0,2.164c1.062,0,2.124,0,3.207,0c0,0.736,0,1.449,0,2.162C8.452,22.068,5.582,22.068,2.713,22.068z"/>
	</g>
	<g>
		
			<linearGradient id="SVGID_4_" gradientUnits="userSpaceOnUse" x1="15.3779" y1="28.416" x2="15.3779" y2="48.805" gradientTransform="matrix(1 0 0 -1 -8.3599 51.0547)">
			<stop  offset="0" style="stop-color:#FFFFFF"/>
			<stop  offset="1" style="stop-color:#929292"/>
		</linearGradient>
		<path fill="url(#SVGID_4_)" d="M7.392,1.411c0.149,0.036,0.296,0.07,0.442,0.111c1.407,0.383,2.385,1.632,2.391,3.088
			c0.009,2.444,0.013,4.89,0,7.333c-0.01,1.731-1.354,3.099-3.092,3.193c-1.639,0.087-3.096-1.174-3.296-2.859
			c-0.019-0.158-0.029-0.318-0.029-0.478c-0.002-2.35,0.007-4.695-0.004-7.042c-0.009-1.81,1.271-3.109,2.761-3.313
			C6.592,1.44,6.617,1.423,6.642,1.411C6.891,1.411,7.143,1.411,7.392,1.411z"/>
		
			<linearGradient id="SVGID_5_" gradientUnits="userSpaceOnUse" x1="15.3818" y1="28.4131" x2="15.3818" y2="48.805" gradientTransform="matrix(1 0 0 -1 -8.3599 51.0547)">
			<stop  offset="0" style="stop-color:#FFFFFF"/>
			<stop  offset="1" style="stop-color:#929292"/>
		</linearGradient>
		<path fill="url(#SVGID_5_)" d="M2.713,22.807c0-0.709,0-1.42,0-2.151c1.069,0,2.131,0,3.206,0c0-0.759,0-1.492,0-2.222
			c-0.39-0.076-0.783-0.133-1.164-0.231c-2.249-0.585-3.989-2.611-4.216-4.922c-0.054-0.545-0.035-1.098-0.04-1.649
			c-0.006-0.583-0.002-1.167-0.002-1.765c0.721,0,1.426,0,2.154,0c0,0.087,0,0.171,0,0.253c0.002,0.89-0.027,1.784,0.013,2.671
			c0.091,1.979,1.674,3.461,3.657,3.46c0.646,0,1.302,0.039,1.938-0.044c1.824-0.243,3.112-1.759,3.124-3.608
			c0.003-0.829,0-1.656,0-2.485c0-0.082,0-0.164,0-0.253c0.726,0,1.427,0,2.124,0c0.01,0.021,0.023,0.032,0.023,0.044
			c-0.011,1.134,0.077,2.279-0.053,3.4c-0.257,2.248-1.516,3.813-3.595,4.686c-0.55,0.23-1.158,0.324-1.771,0.488
			c0,0.672,0,1.403,0,2.162c1.062,0,2.124,0,3.207,0c0,0.738,0,1.45,0,2.166C8.452,22.807,5.582,22.807,2.713,22.807z"/>
	</g>
</g>
</svg>
