<?xml version="1.0" encoding="utf-8"?>
<!-- Generator: Adobe Illustrator 16.0.0, SVG Export Plug-In . SVG Version: 6.00 Build 0)  -->
<!DOCTYPE svg PUBLIC "-//W3C//DTD SVG 1.1//EN" "http://www.w3.org/Graphics/SVG/1.1/DTD/svg11.dtd">
<svg version="1.1" id="Layer_1" xmlns="http://www.w3.org/2000/svg" xmlns:xlink="http://www.w3.org/1999/xlink" x="0px" y="0px"
	 width="18.667px" height="15.938px" viewBox="0 0 18.667 15.938" enable-background="new 0 0 18.667 15.938" xml:space="preserve">
<g display="none">
	<path display="inline" fill="#FFFFFF" d="M3.167,23.418c0-6.891,0-13.779,0-20.668c6.889,0,13.778,0,20.667,0
		c0,6.889,0,13.777,0,20.668C16.945,23.418,10.056,23.418,3.167,23.418z M20.534,11.013c-0.033-0.123-0.048-0.175-0.062-0.226
		c-0.31-0.989-0.818-1.86-1.496-2.643c-0.199-0.231-0.392-0.25-0.629-0.106c-0.724,0.433-1.351,0.317-2.062-0.141
		c-0.479-0.308-0.777-0.592-0.8-1.149c-0.004-0.08-0.022-0.159-0.036-0.239c-0.099-0.573-0.114-0.634-0.694-0.678
		c-0.719-0.055-1.446-0.08-2.165-0.03c-0.917,0.064-0.944,0.099-1.027,0.974c-0.052,0.543-0.339,0.792-0.767,1.096
		C10.071,8.386,9.409,8.459,8.666,8.02c-0.264-0.156-0.47-0.077-0.618,0.156C7.606,8.877,7.126,9.56,6.753,10.297
		c-0.368,0.726-0.343,0.786,0.319,1.26c0.492,0.353,0.611,0.747,0.629,1.345c0.023,0.772-0.112,1.352-0.821,1.732
		c-0.383,0.205-0.415,0.527-0.222,0.89c0.341,0.639,0.644,1.301,1.041,1.897c0.516,0.783,0.558,0.785,1.423,0.42
		c0.459-0.194,0.796-0.17,1.254,0.093c0.716,0.407,1.298,0.803,1.235,1.737c-0.02,0.295,0.175,0.468,0.499,0.522
		c0.827,0.142,1.649,0.209,2.481,0.05c0.759-0.146,0.782-0.134,0.874-0.854c0.075-0.596,0.346-0.936,0.881-1.277
		c0.705-0.446,1.293-0.5,1.979-0.104c0.277,0.158,0.49,0.08,0.701-0.159c0.645-0.74,1.104-1.578,1.43-2.503
		c0.092-0.258,0.102-0.469-0.168-0.616c-0.744-0.422-1.018-1.003-0.939-1.899c0.045-0.536,0.109-0.913,0.562-1.2
		c0.154-0.101,0.305-0.222,0.438-0.351C20.432,11.191,20.491,11.076,20.534,11.013z"/>
	<path display="inline" fill="#FFFFFF" d="M20.534,11.013c-0.043,0.062-0.103,0.178-0.188,0.261
		c-0.138,0.129-0.283,0.25-0.439,0.351c-0.446,0.287-0.516,0.664-0.561,1.2c-0.074,0.896,0.196,1.478,0.938,1.899
		c0.268,0.147,0.262,0.358,0.17,0.616c-0.326,0.925-0.787,1.763-1.431,2.502c-0.211,0.24-0.424,0.318-0.701,0.16
		c-0.688-0.396-1.272-0.342-1.979,0.104c-0.532,0.345-0.803,0.685-0.878,1.277c-0.092,0.721-0.115,0.709-0.874,0.854
		c-0.832,0.159-1.654,0.092-2.481-0.05c-0.324-0.059-0.519-0.229-0.499-0.522c0.063-0.937-0.519-1.33-1.235-1.737
		c-0.458-0.263-0.795-0.287-1.254-0.093c-0.865,0.365-0.907,0.363-1.423-0.42c-0.396-0.601-0.699-1.262-1.041-1.897
		c-0.193-0.359-0.161-0.685,0.222-0.89c0.709-0.38,0.844-0.959,0.821-1.732c-0.018-0.599-0.137-0.993-0.629-1.345
		c-0.662-0.474-0.687-0.534-0.319-1.26c0.374-0.737,0.853-1.42,1.295-2.121C8.193,7.943,8.4,7.864,8.664,8.02
		c0.744,0.438,1.406,0.365,2.131-0.149c0.427-0.303,0.715-0.553,0.767-1.096c0.083-0.875,0.11-0.91,1.027-0.974
		c0.719-0.05,1.446-0.025,2.165,0.03c0.58,0.044,0.596,0.104,0.694,0.678c0.014,0.08,0.032,0.159,0.036,0.239
		c0.021,0.557,0.317,0.841,0.8,1.149c0.711,0.458,1.338,0.574,2.059,0.141c0.24-0.144,0.433-0.125,0.632,0.106
		c0.678,0.783,1.188,1.654,1.496,2.643C20.486,10.838,20.5,10.891,20.534,11.013z M13.554,16.01
		c1.365,0.008,2.917-1.043,2.971-2.998c0.043-1.593-1.394-2.983-2.991-2.992c-1.64-0.009-3.029,1.406-2.998,3.054
		C10.566,14.709,11.92,16.027,13.554,16.01z"/>
	<path display="inline" fill="#FFFFFF" d="M13.554,16.01c-1.634,0.018-2.988-1.301-3.019-2.937
		c-0.031-1.647,1.358-3.062,2.998-3.054c1.599,0.009,3.035,1.399,2.99,2.992C16.471,14.967,14.919,16.018,13.554,16.01z"/>
</g>
<image display="none" overflow="visible" width="498" height="174" xlink:href="../../../Screen Shot 2012-12-13 at 10.18.59 AM.png"  transform="matrix(1 0 0 1 -228.918 -6.0645)">
</image>
<path display="none" d="M20.038,7.539c-0.057,0.082-0.137,0.236-0.252,0.346c-0.18,0.171-0.375,0.331-0.582,0.465
	c-0.594,0.381-0.684,0.881-0.744,1.592c-0.098,1.189,0.263,1.96,1.246,2.518c0.355,0.198,0.349,0.478,0.228,0.82
	c-0.435,1.224-1.045,2.336-1.897,3.319c-0.279,0.317-0.562,0.422-0.931,0.213c-0.914-0.523-1.689-0.455-2.627,0.141
	c-0.707,0.455-1.066,0.906-1.166,1.693c-0.122,0.957-0.152,0.939-1.159,1.133c-1.104,0.211-2.194,0.117-3.292-0.068
	c-0.429-0.074-0.688-0.303-0.662-0.691c0.083-1.242-0.688-1.767-1.638-2.306c-0.607-0.347-1.055-0.38-1.663-0.124
	c-1.147,0.484-1.204,0.48-1.888-0.555c-0.525-0.799-0.927-1.676-1.381-2.519c-0.255-0.478-0.213-0.906,0.295-1.178
	c0.94-0.506,1.12-1.273,1.089-2.298C2.989,9.249,2.831,8.726,2.177,8.259C1.3,7.63,1.266,7.55,1.754,6.587
	C2.25,5.609,2.886,4.704,3.472,3.774C3.67,3.467,3.943,3.362,4.294,3.569C5.281,4.15,6.158,4.054,7.12,3.372
	C7.687,2.97,8.069,2.638,8.138,1.918C8.248,0.757,8.284,0.711,9.5,0.626c0.954-0.066,1.918-0.033,2.872,0.04
	c0.769,0.059,0.792,0.138,0.921,0.9c0.018,0.105,0.041,0.21,0.046,0.316c0.029,0.739,0.425,1.116,1.061,1.524
	c0.946,0.607,1.774,0.762,2.733,0.188c0.316-0.192,0.57-0.166,0.837,0.14c0.896,1.04,1.575,2.194,1.983,3.506
	C19.973,7.306,19.993,7.376,20.038,7.539z M10.779,14.167c1.81,0.011,3.869-1.383,3.94-3.978c0.058-2.114-1.849-3.958-3.967-3.969
	c-2.175-0.011-4.018,1.865-3.977,4.051C6.815,12.441,8.611,14.188,10.779,14.167z"/>
<g display="none">
	<path display="inline" fill="none" d="M-3,24.352C-3,15.21-3,6.074-3-3.064c9.138,0,18.276,0,27.417,0c0,9.138,0,18.274,0,27.416
		C15.276,24.352,6.139,24.352-3,24.352z M20.038,7.898c-0.045-0.163-0.063-0.232-0.084-0.3C19.545,6.286,18.87,5.13,17.97,4.092
		c-0.265-0.306-0.519-0.332-0.834-0.141c-0.959,0.575-1.79,0.421-2.733-0.187c-0.636-0.409-1.031-0.786-1.061-1.524
		c-0.005-0.106-0.029-0.211-0.047-0.317c-0.131-0.76-0.151-0.84-0.921-0.899c-0.953-0.074-1.917-0.106-2.872-0.04
		C8.285,1.069,8.249,1.115,8.139,2.276C8.07,2.996,7.69,3.327,7.122,3.73C6.158,4.413,5.281,4.51,4.295,3.928
		C3.943,3.722,3.67,3.825,3.474,4.135C2.888,5.065,2.25,5.972,1.756,6.949C1.268,7.912,1.301,7.992,2.179,8.621
		c0.653,0.468,0.811,0.991,0.835,1.783c0.03,1.024-0.148,1.794-1.089,2.298c-0.508,0.271-0.551,0.699-0.294,1.178
		c0.452,0.847,0.854,1.726,1.381,2.519c0.684,1.039,0.74,1.041,1.887,0.558c0.609-0.257,1.056-0.226,1.663,0.121
		c0.95,0.542,1.722,1.065,1.638,2.308c-0.026,0.391,0.233,0.621,0.662,0.692c1.097,0.188,2.188,0.276,3.291,0.067
		c1.006-0.193,1.038-0.179,1.159-1.136c0.1-0.788,0.458-1.241,1.168-1.69c0.935-0.596,1.716-0.663,2.624-0.142
		c0.369,0.209,0.654,0.105,0.93-0.211c0.855-0.983,1.465-2.098,1.9-3.322c0.121-0.341,0.131-0.621-0.225-0.819
		c-0.986-0.56-1.349-1.332-1.246-2.518c0.061-0.711,0.146-1.211,0.742-1.592c0.209-0.134,0.403-0.294,0.584-0.466
		C19.903,8.132,19.981,7.98,20.038,7.898z"/>
	
		<linearGradient id="SVGID_1_" gradientUnits="userSpaceOnUse" x1="35.8188" y1="-730.3813" x2="35.8188" y2="-718.2747" gradientTransform="matrix(1 0 0 -1 -25.0796 -714.8359)">
		<stop  offset="0" style="stop-color:#FFFFFF"/>
		<stop  offset="1" style="stop-color:#A3A3A3"/>
	</linearGradient>
	<path display="inline" fill="url(#SVGID_1_)" d="M20.038,7.898c-0.057,0.082-0.137,0.236-0.252,0.346
		c-0.18,0.171-0.375,0.332-0.582,0.466c-0.594,0.381-0.684,0.88-0.744,1.592c-0.098,1.188,0.263,1.96,1.246,2.518
		c0.355,0.198,0.349,0.478,0.228,0.819c-0.435,1.225-1.045,2.337-1.897,3.318c-0.279,0.32-0.562,0.424-0.931,0.214
		c-0.914-0.524-1.689-0.453-2.627,0.142c-0.707,0.453-1.066,0.905-1.166,1.691c-0.122,0.959-0.152,0.939-1.159,1.135
		c-1.104,0.211-2.194,0.119-3.292-0.066c-0.429-0.076-0.688-0.305-0.662-0.692c0.083-1.241-0.688-1.766-1.638-2.308
		c-0.607-0.346-1.055-0.379-1.663-0.121c-1.147,0.484-1.204,0.48-1.888-0.557c-0.525-0.797-0.927-1.676-1.381-2.52
		c-0.255-0.477-0.213-0.907,0.295-1.178c0.94-0.505,1.12-1.273,1.089-2.297C2.989,9.607,2.831,9.085,2.177,8.618
		C1.3,7.989,1.266,7.91,1.754,6.946C2.25,5.969,2.886,5.063,3.472,4.133C3.67,3.825,3.943,3.722,4.294,3.929
		C5.281,4.51,6.158,4.413,7.12,3.731c0.567-0.402,0.949-0.733,1.018-1.454C8.248,1.116,8.284,1.07,9.5,0.985
		c0.954-0.066,1.918-0.033,2.872,0.041c0.769,0.058,0.792,0.138,0.921,0.898c0.018,0.106,0.041,0.211,0.046,0.318
		c0.029,0.739,0.425,1.115,1.061,1.524c0.946,0.607,1.774,0.761,2.733,0.187c0.316-0.191,0.57-0.166,0.837,0.141
		c0.896,1.039,1.575,2.194,1.983,3.506C19.973,7.666,19.993,7.735,20.038,7.898z M10.779,14.525c1.81,0.013,3.869-1.382,3.94-3.979
		c0.058-2.113-1.849-3.957-3.967-3.968C8.577,6.566,6.734,8.443,6.775,10.63C6.815,12.801,8.611,14.547,10.779,14.525z"/>
	<path fill="none" d="M10.779,14.525C8.611,14.547,6.815,12.8,6.774,10.63c-0.042-2.185,1.802-4.061,3.977-4.05
		c2.121,0.011,4.026,1.855,3.966,3.968C14.648,13.143,12.589,14.538,10.779,14.525z"/>
</g>
<g>
	<path d="M0,0.026C0,0.019,0,0.01,0,0.001c0.671,0,1.342,0.002,2.014-0.001c0.082,0,0.117,0.023,0.143,0.102
		c0.095,0.286,0.202,0.567,0.298,0.852C2.48,1.027,2.512,1.053,2.592,1.049c0.349-0.014,0.699-0.022,1.048-0.031
		c2.081-0.06,4.161-0.119,6.242-0.177c0.823-0.023,1.646-0.044,2.471-0.067c0,1.279,0,2.558,0,3.837
		c-0.015,0.005-0.03,0.013-0.046,0.014C10.696,4.959,9.084,5.29,7.472,5.624c-1.27,0.263-2.539,0.525-3.808,0.791
		C3.44,6.461,3.306,6.671,3.348,6.893C3.39,7.116,3.556,7.24,3.814,7.24c2.846,0,5.693,0,8.54,0c0,0.435,0,0.869,0,1.303
		c-0.041,0.001-0.081,0.007-0.12,0.007c-2.814,0-5.628,0-8.442,0c-0.088,0-0.178,0-0.264-0.015c-0.697-0.12-1.187-0.506-1.409-1.18
		C1.895,6.676,2.065,6.073,2.569,5.566c0.054-0.054,0.06-0.096,0.037-0.165C2.402,4.8,2.202,4.199,2.001,3.598
		C1.696,2.688,1.389,1.78,1.087,0.87C1.06,0.787,1.022,0.755,0.935,0.761C0.806,0.767,0.677,0.757,0.549,0.765
		C0.465,0.769,0.42,0.738,0.379,0.666C0.258,0.449,0.127,0.239,0,0.026z"/>
	<path fill-rule="evenodd" clip-rule="evenodd" d="M12.354,10.33c-0.058,0.252-0.153,0.486-0.328,0.687
		c-0.363,0.412-0.979,0.536-1.5,0.298c-0.486-0.223-0.796-0.781-0.724-1.303c0.081-0.577,0.505-1.026,1.05-1.111
		c0.709-0.111,1.326,0.312,1.478,1.013c0.004,0.019,0.016,0.035,0.023,0.052C12.354,10.089,12.354,10.209,12.354,10.33z"/>
	<path fill-rule="evenodd" clip-rule="evenodd" d="M5.988,10.153c0.002,0.713-0.565,1.284-1.273,1.286
		c-0.705,0-1.285-0.579-1.284-1.281c0-0.699,0.572-1.274,1.273-1.278C5.415,8.877,5.986,9.443,5.988,10.153z"/>
</g>
<g>
	<path fill="#FFFFFF" d="M0,0.263c0-0.007,0-0.016,0-0.024c0.671,0,1.342,0.002,2.014-0.002c0.082,0,0.117,0.023,0.143,0.103
		c0.095,0.286,0.202,0.567,0.298,0.851c0.025,0.074,0.057,0.1,0.137,0.096c0.349-0.015,0.699-0.022,1.048-0.032
		c2.081-0.059,4.161-0.118,6.242-0.177c0.823-0.023,1.646-0.044,2.471-0.067c0,1.28,0,2.558,0,3.837
		c-0.015,0.006-0.03,0.014-0.046,0.015c-1.611,0.334-3.223,0.665-4.835,0.999c-1.27,0.263-2.539,0.525-3.808,0.79
		C3.44,6.699,3.306,6.908,3.348,7.131s0.208,0.347,0.466,0.347c2.846,0,5.693,0,8.54,0c0,0.435,0,0.869,0,1.303
		c-0.041,0.002-0.081,0.008-0.12,0.008c-2.814,0-5.628,0-8.442,0c-0.088,0-0.178,0-0.264-0.015c-0.697-0.121-1.187-0.507-1.409-1.18
		C1.895,6.914,2.065,6.311,2.569,5.804c0.054-0.053,0.06-0.096,0.037-0.165C2.402,5.038,2.202,4.437,2.001,3.835
		C1.696,2.926,1.389,2.018,1.087,1.107C1.06,1.025,1.022,0.993,0.935,0.999C0.806,1.004,0.677,0.995,0.549,1.002
		c-0.084,0.003-0.128-0.026-0.169-0.1C0.258,0.687,0.127,0.477,0,0.263z"/>
	<path fill-rule="evenodd" clip-rule="evenodd" fill="#FFFFFF" d="M12.354,10.567c-0.058,0.252-0.153,0.486-0.328,0.687
		c-0.363,0.412-0.979,0.537-1.5,0.299C10.04,11.33,9.73,10.771,9.802,10.25c0.081-0.577,0.505-1.026,1.05-1.111
		c0.709-0.111,1.326,0.312,1.478,1.013c0.004,0.019,0.016,0.035,0.023,0.052C12.354,10.326,12.354,10.447,12.354,10.567z"/>
	<path fill-rule="evenodd" clip-rule="evenodd" fill="#FFFFFF" d="M5.988,10.391c0.002,0.712-0.565,1.284-1.273,1.286
		c-0.705,0-1.285-0.579-1.284-1.28c0-0.7,0.572-1.274,1.273-1.278C5.415,9.114,5.986,9.68,5.988,10.391z"/>
</g>
</svg>
