<?xml version="1.0" encoding="utf-8"?>
<!-- Generator: Adobe Illustrator 16.0.0, SVG Export Plug-In . SVG Version: 6.00 Build 0)  -->
<!DOCTYPE svg PUBLIC "-//W3C//DTD SVG 1.1//EN" "http://www.w3.org/Graphics/SVG/1.1/DTD/svg11.dtd">
<svg version="1.1" id="Layer_1" xmlns="http://www.w3.org/2000/svg" xmlns:xlink="http://www.w3.org/1999/xlink" x="0px" y="0px"
	 width="18.667px" height="18.344px" viewBox="0 0 18.667 18.344" enable-background="new 0 0 18.667 18.344" xml:space="preserve">
<g display="none">
	<path display="inline" fill="#FFFFFF" d="M3.167,23.418c0-6.892,0-13.779,0-20.668c6.889,0,13.778,0,20.667,0
		c0,6.889,0,13.776,0,20.668C16.945,23.418,10.056,23.418,3.167,23.418z M20.535,11.013c-0.033-0.123-0.049-0.175-0.062-0.226
		c-0.311-0.989-0.818-1.86-1.496-2.644c-0.199-0.23-0.393-0.25-0.629-0.105c-0.725,0.433-1.352,0.316-2.062-0.142
		c-0.479-0.308-0.777-0.592-0.8-1.148c-0.004-0.08-0.022-0.159-0.036-0.239c-0.099-0.573-0.113-0.634-0.693-0.678
		c-0.719-0.056-1.446-0.08-2.166-0.03c-0.916,0.064-0.943,0.099-1.026,0.974c-0.052,0.543-0.339,0.792-0.767,1.097
		c-0.726,0.515-1.387,0.588-2.13,0.148c-0.264-0.155-0.47-0.077-0.618,0.156C7.606,8.877,7.126,9.56,6.753,10.297
		c-0.368,0.726-0.343,0.786,0.319,1.26c0.492,0.354,0.611,0.747,0.629,1.345c0.023,0.772-0.112,1.353-0.821,1.732
		c-0.383,0.205-0.415,0.527-0.222,0.89c0.341,0.64,0.644,1.302,1.041,1.897c0.516,0.783,0.558,0.785,1.423,0.42
		c0.459-0.194,0.795-0.17,1.254,0.093c0.715,0.407,1.297,0.803,1.234,1.737c-0.02,0.295,0.176,0.468,0.499,0.521
		c0.827,0.143,1.649,0.209,2.481,0.051c0.759-0.146,0.781-0.135,0.873-0.854c0.076-0.596,0.347-0.936,0.882-1.277
		c0.704-0.445,1.293-0.5,1.979-0.104c0.276,0.158,0.489,0.08,0.7-0.159c0.646-0.74,1.104-1.578,1.431-2.503
		c0.092-0.258,0.102-0.469-0.168-0.616c-0.744-0.422-1.019-1.003-0.939-1.898c0.045-0.536,0.109-0.913,0.562-1.2
		c0.153-0.101,0.305-0.222,0.438-0.351C20.432,11.191,20.492,11.076,20.535,11.013z"/>
	<path display="inline" fill="#FFFFFF" d="M20.535,11.013c-0.043,0.062-0.104,0.178-0.188,0.261
		c-0.138,0.129-0.283,0.25-0.438,0.352c-0.447,0.287-0.517,0.664-0.562,1.2c-0.074,0.896,0.196,1.478,0.938,1.898
		c0.268,0.147,0.262,0.358,0.17,0.616c-0.326,0.925-0.787,1.763-1.432,2.502c-0.211,0.24-0.424,0.318-0.701,0.16
		c-0.688-0.396-1.271-0.342-1.979,0.104c-0.532,0.346-0.803,0.686-0.879,1.277c-0.092,0.721-0.114,0.709-0.873,0.854
		c-0.832,0.159-1.654,0.093-2.481-0.05c-0.323-0.059-0.519-0.229-0.499-0.521c0.062-0.938-0.52-1.33-1.234-1.737
		c-0.459-0.263-0.795-0.287-1.254-0.093c-0.865,0.365-0.907,0.363-1.423-0.42C7.303,16.814,7,16.153,6.658,15.518
		c-0.193-0.358-0.161-0.685,0.222-0.89c0.709-0.38,0.844-0.959,0.821-1.732c-0.018-0.599-0.137-0.993-0.629-1.345
		c-0.662-0.474-0.687-0.534-0.319-1.26c0.374-0.737,0.853-1.42,1.295-2.121C8.193,7.943,8.4,7.865,8.664,8.02
		c0.744,0.438,1.406,0.365,2.13-0.148c0.428-0.304,0.715-0.554,0.768-1.097c0.083-0.875,0.109-0.909,1.027-0.974
		c0.719-0.05,1.445-0.025,2.164,0.03c0.58,0.044,0.597,0.104,0.695,0.678c0.014,0.08,0.031,0.159,0.035,0.239
		c0.021,0.557,0.316,0.841,0.801,1.148c0.711,0.458,1.338,0.574,2.059,0.142c0.24-0.145,0.433-0.125,0.632,0.105
		c0.678,0.783,1.188,1.654,1.496,2.644C20.486,10.838,20.5,10.891,20.535,11.013z M13.554,16.01
		c1.365,0.008,2.917-1.043,2.971-2.998c0.043-1.593-1.395-2.983-2.99-2.992c-1.641-0.009-3.029,1.406-2.998,3.055
		C10.566,14.709,11.919,16.027,13.554,16.01z"/>
	<path display="inline" fill="#FFFFFF" d="M13.554,16.01c-1.635,0.018-2.988-1.301-3.02-2.937c-0.031-1.647,1.358-3.062,2.998-3.055
		c1.6,0.009,3.035,1.399,2.99,2.992C16.471,14.967,14.919,16.018,13.554,16.01z"/>
</g>
<image display="none" overflow="visible" enable-background="new    " width="498" height="174" xlink:href="../../../Screen Shot 2012-12-13 at 10.18.59 AM.png"  transform="matrix(1 0 0 1 -228.9175 -6.0642)">
</image>
<path display="none" d="M20.039,7.539c-0.058,0.082-0.138,0.235-0.252,0.346c-0.181,0.171-0.375,0.331-0.582,0.465
	C18.61,8.731,18.52,9.231,18.46,9.942c-0.099,1.189,0.263,1.96,1.246,2.519c0.354,0.198,0.349,0.478,0.228,0.82
	c-0.435,1.224-1.045,2.336-1.897,3.318c-0.279,0.317-0.562,0.422-0.931,0.213c-0.914-0.522-1.688-0.455-2.627,0.142
	c-0.707,0.455-1.065,0.905-1.166,1.692c-0.122,0.957-0.151,0.939-1.159,1.133c-1.104,0.212-2.193,0.117-3.292-0.067
	C8.433,19.637,8.174,19.408,8.2,19.02c0.083-1.242-0.688-1.767-1.638-2.306c-0.607-0.347-1.055-0.38-1.663-0.124
	c-1.147,0.484-1.204,0.479-1.888-0.555c-0.525-0.8-0.927-1.677-1.381-2.52c-0.255-0.478-0.213-0.906,0.295-1.178
	c0.94-0.506,1.12-1.273,1.089-2.298C2.989,9.249,2.831,8.726,2.177,8.259C1.3,7.63,1.266,7.55,1.754,6.587
	C2.25,5.609,2.886,4.704,3.472,3.774C3.67,3.467,3.943,3.362,4.294,3.569C5.281,4.15,6.158,4.054,7.12,3.372
	C7.687,2.97,8.069,2.638,8.138,1.918C8.248,0.757,8.284,0.711,9.5,0.626c0.955-0.066,1.917-0.033,2.873,0.04
	c0.769,0.059,0.791,0.138,0.92,0.899c0.019,0.105,0.041,0.21,0.047,0.316c0.029,0.739,0.425,1.116,1.061,1.524
	c0.946,0.606,1.773,0.762,2.732,0.188c0.316-0.192,0.57-0.166,0.838,0.14c0.896,1.04,1.574,2.194,1.982,3.507
	C19.973,7.306,19.994,7.376,20.039,7.539z M10.779,14.167c1.811,0.011,3.869-1.383,3.94-3.979c0.058-2.113-1.849-3.958-3.968-3.969
	c-2.174-0.011-4.018,1.865-3.977,4.051C6.815,12.441,8.611,14.188,10.779,14.167z"/>
<g display="none">
	<path display="inline" fill="none" d="M-3,24.352C-3,15.21-3,6.074-3-3.064c9.138,0,18.276,0,27.417,0c0,9.139,0,18.274,0,27.416
		C15.276,24.352,6.139,24.352-3,24.352z M20.039,7.898c-0.045-0.163-0.063-0.231-0.084-0.3c-0.41-1.312-1.084-2.468-1.984-3.506
		c-0.266-0.306-0.52-0.332-0.834-0.141c-0.959,0.574-1.79,0.421-2.733-0.188c-0.636-0.409-1.03-0.786-1.062-1.523
		c-0.004-0.106-0.028-0.212-0.047-0.317c-0.131-0.76-0.15-0.84-0.92-0.899c-0.953-0.073-1.918-0.105-2.873-0.04
		C8.285,1.069,8.249,1.115,8.139,2.276C8.07,2.996,7.69,3.327,7.122,3.73C6.158,4.413,5.281,4.51,4.295,3.928
		C3.943,3.722,3.67,3.825,3.474,4.135C2.888,5.065,2.25,5.972,1.756,6.949C1.268,7.912,1.301,7.992,2.179,8.621
		c0.653,0.468,0.811,0.99,0.835,1.782c0.03,1.024-0.148,1.795-1.089,2.299c-0.508,0.271-0.551,0.698-0.294,1.178
		c0.452,0.847,0.854,1.726,1.381,2.519c0.684,1.039,0.74,1.041,1.887,0.559c0.609-0.257,1.056-0.227,1.663,0.121
		c0.95,0.542,1.722,1.064,1.638,2.308c-0.026,0.391,0.233,0.621,0.662,0.692c1.097,0.188,2.188,0.275,3.291,0.066
		c1.007-0.192,1.038-0.179,1.159-1.136c0.1-0.788,0.458-1.241,1.168-1.69c0.936-0.596,1.716-0.662,2.624-0.142
		c0.369,0.209,0.653,0.105,0.931-0.211c0.854-0.983,1.465-2.098,1.899-3.322c0.121-0.341,0.131-0.621-0.226-0.818
		c-0.985-0.561-1.349-1.332-1.246-2.519c0.062-0.711,0.146-1.211,0.742-1.592c0.209-0.134,0.403-0.294,0.584-0.466
		C19.903,8.132,19.981,7.98,20.039,7.898z"/>
	
		<linearGradient id="SVGID_1_" gradientUnits="userSpaceOnUse" x1="44.1772" y1="1547.3254" x2="44.1772" y2="1535.2195" gradientTransform="matrix(1 0 0 1 -33.4395 -1531.7812)">
		<stop  offset="0" style="stop-color:#FFFFFF"/>
		<stop  offset="1" style="stop-color:#A3A3A3"/>
	</linearGradient>
	<path display="inline" fill="url(#SVGID_1_)" d="M20.039,7.898c-0.058,0.082-0.138,0.236-0.252,0.347
		c-0.181,0.171-0.375,0.332-0.582,0.466c-0.595,0.381-0.685,0.88-0.744,1.592c-0.099,1.188,0.263,1.96,1.246,2.518
		c0.354,0.198,0.349,0.479,0.228,0.819c-0.435,1.226-1.045,2.337-1.897,3.318c-0.279,0.319-0.562,0.424-0.931,0.214
		c-0.914-0.524-1.688-0.453-2.627,0.142c-0.707,0.453-1.065,0.905-1.166,1.691c-0.122,0.959-0.151,0.938-1.159,1.135
		c-1.104,0.211-2.193,0.119-3.292-0.065c-0.429-0.076-0.688-0.306-0.662-0.692c0.083-1.241-0.688-1.766-1.638-2.308
		c-0.607-0.347-1.055-0.38-1.663-0.121c-1.147,0.483-1.204,0.479-1.888-0.558c-0.525-0.797-0.927-1.676-1.381-2.52
		c-0.255-0.478-0.213-0.907,0.295-1.178c0.94-0.506,1.12-1.273,1.089-2.298C2.989,9.607,2.831,9.085,2.177,8.618
		C1.3,7.99,1.266,7.91,1.754,6.946C2.25,5.969,2.886,5.063,3.472,4.133C3.67,3.825,3.943,3.722,4.294,3.929
		C5.281,4.51,6.158,4.413,7.12,3.731c0.567-0.401,0.949-0.732,1.018-1.454C8.248,1.116,8.284,1.07,9.5,0.985
		c0.955-0.065,1.917-0.032,2.873,0.041c0.769,0.059,0.791,0.139,0.92,0.898c0.019,0.106,0.041,0.211,0.047,0.318
		c0.029,0.738,0.425,1.114,1.061,1.523c0.946,0.607,1.773,0.761,2.732,0.188c0.316-0.191,0.57-0.166,0.838,0.141
		c0.896,1.039,1.574,2.194,1.982,3.506C19.973,7.666,19.994,7.735,20.039,7.898z M10.779,14.525c1.811,0.014,3.869-1.382,3.94-3.979
		c0.058-2.113-1.849-3.957-3.968-3.968C8.577,6.566,6.734,8.443,6.775,10.63C6.815,12.801,8.611,14.547,10.779,14.525z"/>
	<path display="inline" fill="none" d="M10.779,14.525C8.611,14.547,6.815,12.8,6.774,10.63c-0.042-2.186,1.802-4.062,3.978-4.05
		c2.121,0.011,4.025,1.854,3.965,3.968C14.648,13.143,12.589,14.538,10.779,14.525z"/>
</g>
<g display="none">
	<path display="inline" d="M0,0.026C0,0.019,0,0.01,0,0.001c0.671,0,1.342,0.002,2.014-0.001c0.082,0,0.117,0.022,0.143,0.102
		c0.095,0.286,0.202,0.567,0.298,0.853C2.48,1.027,2.512,1.053,2.592,1.049C2.941,1.035,3.291,1.027,3.64,1.018
		c2.081-0.06,4.161-0.119,6.242-0.177c0.822-0.023,1.646-0.044,2.471-0.067c0,1.279,0,2.559,0,3.837
		c-0.016,0.006-0.029,0.014-0.046,0.015C10.696,4.959,9.084,5.29,7.472,5.624c-1.27,0.263-2.539,0.524-3.808,0.791
		C3.44,6.461,3.306,6.671,3.348,6.893C3.39,7.116,3.556,7.24,3.814,7.24c2.846,0,5.693,0,8.54,0c0,0.435,0,0.868,0,1.303
		c-0.041,0.001-0.081,0.007-0.12,0.007c-2.814,0-5.628,0-8.442,0c-0.088,0-0.178,0-0.264-0.015c-0.697-0.12-1.187-0.507-1.409-1.181
		c-0.224-0.679-0.054-1.281,0.45-1.789c0.054-0.054,0.06-0.096,0.037-0.165C2.402,4.8,2.202,4.199,2.001,3.598
		C1.696,2.688,1.389,1.781,1.087,0.87C1.06,0.787,1.022,0.755,0.935,0.761C0.806,0.767,0.677,0.757,0.549,0.765
		C0.465,0.769,0.42,0.738,0.379,0.666C0.258,0.449,0.127,0.24,0,0.026z"/>
	<path display="inline" d="M12.354,10.33c-0.058,0.252-0.153,0.485-0.328,0.687c-0.362,0.412-0.979,0.536-1.5,0.298
		c-0.485-0.223-0.796-0.78-0.724-1.303c0.081-0.577,0.505-1.026,1.05-1.111c0.709-0.11,1.326,0.312,1.478,1.014
		c0.004,0.019,0.017,0.035,0.023,0.052C12.354,10.089,12.354,10.209,12.354,10.33z"/>
	<path display="inline" d="M5.988,10.153c0.002,0.714-0.565,1.284-1.273,1.286c-0.705,0-1.285-0.579-1.284-1.28
		c0-0.699,0.572-1.274,1.273-1.278C5.415,8.877,5.986,9.443,5.988,10.153z"/>
</g>
<g display="none">
	<path display="inline" fill="#FFFFFF" d="M0,0.263C0,0.256,0,0.247,0,0.24c0.671,0,1.342,0.002,2.014-0.003
		c0.082,0,0.117,0.023,0.143,0.104c0.095,0.286,0.202,0.567,0.298,0.851C2.48,1.265,2.512,1.291,2.592,1.287
		C2.941,1.272,3.291,1.265,3.64,1.255c2.081-0.06,4.161-0.118,6.242-0.177c0.822-0.023,1.646-0.044,2.471-0.067
		c0,1.28,0,2.558,0,3.837c-0.016,0.006-0.029,0.014-0.046,0.015c-1.611,0.335-3.223,0.665-4.835,0.999
		c-1.27,0.264-2.539,0.525-3.808,0.79C3.44,6.699,3.306,6.908,3.348,7.131s0.208,0.347,0.466,0.347c2.846,0,5.693,0,8.54,0
		c0,0.436,0,0.869,0,1.304c-0.041,0.002-0.081,0.008-0.12,0.008c-2.814,0-5.628,0-8.442,0c-0.088,0-0.178,0-0.264-0.016
		c-0.697-0.121-1.187-0.507-1.409-1.18c-0.224-0.68-0.054-1.283,0.45-1.79c0.054-0.053,0.06-0.096,0.037-0.165
		C2.402,5.038,2.202,4.437,2.001,3.835C1.696,2.926,1.389,2.018,1.087,1.107C1.06,1.025,1.022,0.993,0.935,0.999
		C0.806,1.004,0.677,0.995,0.549,1.002C0.465,1.005,0.421,0.976,0.38,0.902C0.258,0.687,0.127,0.477,0,0.263z"/>
	<path display="inline" fill="#FFFFFF" d="M12.354,10.567c-0.058,0.252-0.153,0.486-0.328,0.688c-0.362,0.412-0.979,0.537-1.5,0.299
		c-0.485-0.223-0.796-0.782-0.724-1.303c0.081-0.577,0.505-1.026,1.05-1.111c0.709-0.111,1.326,0.312,1.478,1.013
		c0.004,0.02,0.017,0.035,0.023,0.053C12.354,10.326,12.354,10.448,12.354,10.567z"/>
	<path display="inline" fill="#FFFFFF" d="M5.988,10.391c0.002,0.712-0.565,1.284-1.273,1.286c-0.705,0-1.285-0.579-1.284-1.28
		c0-0.699,0.572-1.273,1.273-1.277C5.415,9.115,5.986,9.68,5.988,10.391z"/>
</g>
<g>
	<path d="M10.451,13.377c-0.279,0-0.558,0-0.835,0c-0.092-0.047-0.181-0.1-0.274-0.14c-0.875-0.375-1.472-0.992-1.623-1.955
		c-0.063-0.402-0.042-0.819-0.058-1.23C7.6,9.736,7.467,9.437,7.133,9.23c-1.35,1.351-2.7,2.7-4.012,4.014
		C1.7,13.42,0.161,11.688,0.449,10.5c0.099-0.105,0.226-0.247,0.36-0.381c1.106-1.112,2.212-2.222,3.318-3.332
		c0.13-0.131,0.249-0.272,0.395-0.435C4.057,5.941,3.764,5.417,3.209,5.23c-1.427,0.335-2.6-0.584-2.994-1.569
		C0.133,3.454,0.071,3.241,0,3.031c0-0.209,0-0.419,0-0.628c0.291-0.136,0.463,0.092,0.637,0.238
		C0.854,2.826,1.068,2.99,1.366,3.025c0.319-0.041,0.581-0.188,0.8-0.432c0.187-0.207,0.396-0.392,0.591-0.591
		c0.476-0.483,0.49-0.777,0.086-1.317C2.689,0.481,2.496,0.29,2.508,0c0.174,0,0.349,0,0.523,0C3.124,0.039,3.214,0.089,3.31,0.117
		c1.197,0.341,1.92,1.292,1.922,2.534c0,0.156,0.003,0.313-0.01,0.47C5.202,3.376,5.26,3.607,5.425,3.802
		c0.312,0.367,0.633,0.729,0.899,1.033c0.3-0.015,0.503-0.022,0.682-0.031C7.2,4.958,7.359,5.086,7.501,5.2
		c1.278-1.285,2.536-2.55,3.801-3.821c-0.061-0.102-0.146-0.244-0.262-0.437c0.523-0.322,1.021-0.618,1.524-0.837
		c0.081,0.026,0.12,0.029,0.144,0.05c0.226,0.19,0.446,0.384,0.668,0.575c0,0.175,0,0.349,0,0.523
		c-0.303,0.392-0.4,0.914-0.775,1.289c-0.176-0.116-0.312-0.208-0.445-0.295C10.69,3.599,8.618,5.723,8.4,6.098
		c0.47,0.613,0.47,0.613,0.31,1.271c0.048,0.058,0.104,0.123,0.158,0.189c0.35,0.436,0.774,0.668,1.36,0.592
		c0.25-0.032,0.525,0.001,0.771,0.071c1.256,0.358,1.892,1.384,1.94,2.656c0.002,0.059-0.051,0.121-0.071,0.167
		c-0.252,0.083-0.392-0.063-0.519-0.203c-0.233-0.254-0.513-0.411-0.851-0.452c-0.278,0.029-0.49,0.166-0.674,0.365
		c-0.154,0.166-0.322,0.32-0.481,0.477c-0.668,0.656-0.688,0.887-0.119,1.642C10.341,13.025,10.475,13.163,10.451,13.377z"/>
</g>
<g>
	<path fill="#FFFFFF" d="M10.451,13.795c-0.279,0-0.558,0-0.835,0c-0.092-0.046-0.181-0.098-0.274-0.139
		c-0.875-0.376-1.473-0.993-1.623-1.956c-0.063-0.401-0.042-0.819-0.058-1.23C7.6,10.154,7.467,9.855,7.133,9.648
		c-1.35,1.351-2.7,2.702-4.012,4.015c-1.422,0.176-2.96-1.556-2.672-2.744c0.099-0.104,0.226-0.248,0.36-0.38
		c1.106-1.112,2.212-2.223,3.318-3.333c0.13-0.131,0.249-0.273,0.395-0.435C4.057,6.36,3.764,5.836,3.209,5.648
		c-1.427,0.335-2.6-0.584-2.994-1.569C0.133,3.873,0.071,3.659,0,3.449c0-0.208,0-0.418,0-0.627C0.291,2.686,0.463,2.913,0.637,3.06
		c0.217,0.186,0.431,0.348,0.729,0.383c0.319-0.041,0.581-0.188,0.8-0.432c0.187-0.207,0.396-0.392,0.591-0.59
		c0.476-0.483,0.49-0.778,0.086-1.317C2.689,0.899,2.496,0.708,2.508,0.418c0.174,0,0.349,0,0.523,0
		c0.093,0.04,0.184,0.089,0.279,0.117C4.507,0.876,5.23,1.828,5.232,3.07c0,0.157,0.003,0.313-0.01,0.47
		C5.202,3.794,5.26,4.025,5.425,4.22c0.312,0.367,0.633,0.728,0.899,1.032c0.3-0.015,0.503-0.022,0.682-0.03
		C7.2,5.376,7.359,5.505,7.501,5.619c1.278-1.285,2.536-2.55,3.801-3.821c-0.061-0.101-0.146-0.244-0.262-0.437
		c0.523-0.322,1.021-0.619,1.524-0.837c0.081,0.027,0.12,0.029,0.144,0.051c0.226,0.189,0.446,0.383,0.668,0.575
		c0,0.176,0,0.35,0,0.523c-0.303,0.392-0.4,0.914-0.775,1.289c-0.176-0.116-0.312-0.208-0.445-0.295
		C10.69,4.017,8.618,6.142,8.4,6.517C8.87,7.13,8.87,7.13,8.71,7.786c0.048,0.059,0.104,0.123,0.158,0.188
		c0.35,0.437,0.774,0.669,1.36,0.593c0.25-0.032,0.525,0,0.771,0.07c1.256,0.358,1.892,1.384,1.94,2.655
		c0.002,0.059-0.051,0.121-0.071,0.167c-0.252,0.084-0.392-0.063-0.519-0.202c-0.233-0.255-0.513-0.412-0.851-0.454
		c-0.278,0.031-0.49,0.167-0.674,0.366c-0.154,0.166-0.322,0.319-0.481,0.477c-0.668,0.655-0.688,0.887-0.119,1.642
		C10.341,13.444,10.475,13.581,10.451,13.795z"/>
</g>
</svg>
