<?xml version="1.0" encoding="utf-8"?>
<!-- Generator: Adobe Illustrator 16.0.0, SVG Export Plug-In . SVG Version: 6.00 Build 0)  -->
<!DOCTYPE svg PUBLIC "-//W3C//DTD SVG 1.1//EN" "http://www.w3.org/Graphics/SVG/1.1/DTD/svg11.dtd">
<svg version="1.1" id="Layer_1" xmlns="http://www.w3.org/2000/svg" xmlns:xlink="http://www.w3.org/1999/xlink" x="0px" y="0px"
	 width="30.083px" height="27px" viewBox="0 0 30.083 27" enable-background="new 0 0 30.083 27" xml:space="preserve">
<g id="Layer_1_1_" display="none">
	<g display="inline">
		<path fill="#FFFFFF" d="M3.167,23.418c0-6.891,0-13.779,0-20.668c6.889,0,13.778,0,20.667,0c0,6.889,0,13.777,0,20.668
			C16.945,23.418,10.056,23.418,3.167,23.418z M20.534,11.013c-0.033-0.123-0.048-0.175-0.062-0.226
			c-0.309-0.989-0.818-1.86-1.496-2.643c-0.199-0.231-0.391-0.25-0.629-0.106c-0.723,0.433-1.35,0.317-2.061-0.141
			c-0.479-0.308-0.777-0.592-0.8-1.149c-0.004-0.08-0.022-0.159-0.036-0.239c-0.099-0.573-0.114-0.634-0.694-0.678
			c-0.719-0.055-1.446-0.08-2.165-0.03c-0.917,0.064-0.944,0.099-1.027,0.974c-0.052,0.543-0.339,0.792-0.767,1.096
			C10.071,8.386,9.409,8.459,8.666,8.02c-0.264-0.156-0.47-0.077-0.618,0.156C7.606,8.877,7.126,9.56,6.753,10.297
			c-0.368,0.726-0.343,0.786,0.319,1.26c0.492,0.353,0.611,0.747,0.629,1.345c0.023,0.772-0.112,1.352-0.821,1.732
			c-0.383,0.205-0.415,0.527-0.222,0.89c0.341,0.638,0.644,1.3,1.041,1.897c0.516,0.783,0.558,0.785,1.423,0.42
			c0.459-0.194,0.796-0.17,1.254,0.093c0.716,0.407,1.298,0.803,1.235,1.737c-0.02,0.295,0.175,0.468,0.499,0.522
			c0.827,0.142,1.649,0.209,2.481,0.05c0.759-0.146,0.782-0.134,0.874-0.854c0.075-0.596,0.346-0.936,0.881-1.277
			c0.705-0.447,1.293-0.5,1.979-0.105c0.277,0.158,0.49,0.08,0.701-0.16c0.645-0.74,1.104-1.578,1.43-2.502
			c0.092-0.258,0.101-0.469-0.168-0.617c-0.744-0.422-1.018-1.003-0.94-1.899c0.045-0.536,0.11-0.913,0.562-1.2
			c0.155-0.101,0.305-0.222,0.438-0.351C20.432,11.191,20.491,11.076,20.534,11.013z"/>
		<path fill="#FFFFFF" d="M20.534,11.013c-0.043,0.062-0.103,0.178-0.189,0.261c-0.137,0.129-0.283,0.25-0.439,0.351
			c-0.447,0.287-0.516,0.664-0.561,1.2c-0.074,0.896,0.197,1.478,0.939,1.899c0.268,0.148,0.262,0.359,0.17,0.617
			c-0.326,0.924-0.787,1.762-1.431,2.502c-0.211,0.24-0.424,0.318-0.701,0.16c-0.688-0.395-1.272-0.342-1.979,0.105
			c-0.533,0.344-0.804,0.684-0.879,1.277c-0.092,0.721-0.115,0.709-0.874,0.854c-0.832,0.159-1.654,0.092-2.481-0.05
			c-0.324-0.058-0.519-0.229-0.499-0.522c0.063-0.937-0.519-1.33-1.235-1.737c-0.458-0.263-0.795-0.287-1.254-0.093
			c-0.865,0.365-0.907,0.363-1.423-0.42c-0.396-0.601-0.699-1.262-1.041-1.897c-0.193-0.36-0.161-0.685,0.222-0.89
			c0.709-0.38,0.844-0.959,0.821-1.732c-0.018-0.599-0.137-0.993-0.629-1.345c-0.662-0.474-0.687-0.534-0.319-1.26
			c0.374-0.737,0.853-1.42,1.295-2.121C8.193,7.943,8.4,7.864,8.664,8.02c0.744,0.438,1.406,0.365,2.131-0.149
			c0.427-0.303,0.715-0.553,0.767-1.096c0.083-0.875,0.11-0.91,1.027-0.974c0.719-0.05,1.446-0.025,2.165,0.03
			c0.58,0.044,0.596,0.104,0.694,0.678c0.014,0.08,0.032,0.159,0.036,0.239c0.021,0.557,0.317,0.841,0.8,1.149
			c0.711,0.458,1.338,0.574,2.059,0.141c0.24-0.144,0.432-0.125,0.631,0.106c0.678,0.783,1.188,1.654,1.496,2.643
			C20.486,10.838,20.5,10.891,20.534,11.013z M13.554,16.01c1.365,0.008,2.917-1.043,2.971-2.998
			c0.043-1.593-1.394-2.983-2.991-2.992c-1.64-0.009-3.029,1.406-2.998,3.054C10.566,14.709,11.92,16.027,13.554,16.01z"/>
		<path fill="#FFFFFF" d="M13.554,16.01c-1.634,0.018-2.988-1.301-3.019-2.937c-0.031-1.647,1.358-3.062,2.998-3.054
			c1.599,0.009,3.035,1.399,2.99,2.992C16.471,14.967,14.919,16.018,13.554,16.01z"/>
	</g>
	<path display="inline" d="M20.534,7.993c-0.043,0.062-0.103,0.178-0.189,0.261c-0.137,0.129-0.283,0.25-0.439,0.351
		c-0.447,0.287-0.516,0.664-0.561,1.2c-0.074,0.896,0.197,1.478,0.939,1.898c0.268,0.15,0.262,0.361,0.17,0.619
		c-0.326,0.922-0.787,1.761-1.431,2.502c-0.211,0.24-0.424,0.318-0.701,0.16c-0.688-0.395-1.272-0.342-1.979,0.106
		c-0.533,0.343-0.804,0.683-0.879,1.276c-0.092,0.722-0.115,0.709-0.874,0.854c-0.832,0.159-1.654,0.09-2.481-0.051
		c-0.324-0.056-0.519-0.229-0.499-0.521c0.063-0.938-0.519-1.332-1.235-1.738c-0.458-0.262-0.795-0.286-1.254-0.094
		c-0.865,0.365-0.907,0.363-1.423-0.418c-0.396-0.602-0.699-1.264-1.041-1.898c-0.193-0.36-0.161-0.683,0.222-0.888
		c0.709-0.381,0.844-0.96,0.821-1.732C7.681,9.282,7.562,8.888,7.07,8.536c-0.662-0.474-0.687-0.534-0.319-1.26
		c0.374-0.737,0.853-1.42,1.295-2.121c0.149-0.231,0.355-0.311,0.619-0.154c0.744,0.438,1.406,0.365,2.131-0.149
		c0.427-0.303,0.715-0.553,0.767-1.096c0.083-0.875,0.11-0.91,1.027-0.974c0.719-0.05,1.446-0.025,2.165,0.03
		c0.58,0.044,0.597,0.104,0.694,0.678c0.014,0.08,0.031,0.159,0.035,0.239c0.022,0.557,0.32,0.841,0.8,1.149
		c0.713,0.458,1.338,0.574,2.061,0.141c0.238-0.144,0.43-0.125,0.631,0.106c0.676,0.783,1.188,1.654,1.496,2.643
		C20.486,7.818,20.5,7.871,20.534,7.993z M13.554,12.99c1.365,0.008,2.917-1.043,2.971-2.999c0.043-1.593-1.394-2.983-2.991-2.992
		c-1.64-0.009-3.029,1.406-2.998,3.054C10.566,11.689,11.92,13.007,13.554,12.99z"/>
	<g display="inline">
		<path fill="none" d="M3.167,20.668c0-6.891,0-13.779,0-20.668c6.889,0,13.778,0,20.667,0c0,6.889,0,13.777,0,20.668
			C16.945,20.668,10.056,20.668,3.167,20.668z M20.534,8.264c-0.033-0.123-0.048-0.175-0.062-0.226
			c-0.309-0.989-0.818-1.86-1.496-2.643c-0.199-0.231-0.391-0.25-0.629-0.106c-0.723,0.433-1.35,0.317-2.061-0.141
			c-0.479-0.308-0.777-0.592-0.8-1.149c-0.004-0.08-0.022-0.159-0.036-0.239c-0.099-0.573-0.114-0.634-0.694-0.678
			c-0.719-0.055-1.446-0.08-2.165-0.03c-0.917,0.064-0.944,0.099-1.027,0.974c-0.052,0.543-0.339,0.792-0.767,1.096
			C10.071,5.637,9.409,5.71,8.666,5.271C8.401,5.116,8.195,5.194,8.047,5.428C7.605,6.129,7.125,6.812,6.752,7.549
			c-0.368,0.726-0.343,0.786,0.319,1.26C7.563,9.162,7.682,9.556,7.7,10.154c0.023,0.772-0.112,1.352-0.821,1.732
			c-0.383,0.205-0.415,0.527-0.222,0.888c0.341,0.638,0.644,1.3,1.041,1.899c0.516,0.782,0.558,0.784,1.423,0.419
			c0.459-0.193,0.796-0.169,1.254,0.092c0.716,0.408,1.298,0.803,1.235,1.739c-0.02,0.294,0.175,0.468,0.499,0.522
			c0.827,0.141,1.649,0.209,2.481,0.05c0.758-0.146,0.782-0.134,0.874-0.854c0.075-0.595,0.345-0.936,0.88-1.274
			c0.705-0.449,1.293-0.501,1.979-0.107c0.277,0.158,0.492,0.08,0.701-0.159c0.645-0.742,1.104-1.581,1.432-2.503
			c0.092-0.258,0.099-0.468-0.17-0.618c-0.742-0.422-1.016-1.004-0.938-1.898c0.045-0.536,0.11-0.913,0.559-1.2
			c0.158-0.101,0.306-0.222,0.441-0.351C20.432,8.441,20.491,8.326,20.534,8.264z"/>
		
			<linearGradient id="SVGID_1_" gradientUnits="userSpaceOnUse" x1="30.2427" y1="779.9199" x2="30.2427" y2="770.793" gradientTransform="matrix(1 0 0 1 -16.7197 -765.8906)">
			<stop  offset="0" style="stop-color:#FFFFFF"/>
			<stop  offset="1" style="stop-color:#A3A3A3"/>
		</linearGradient>
		<path fill="url(#SVGID_1_)" d="M20.534,8.264c-0.043,0.062-0.103,0.178-0.189,0.261c-0.137,0.129-0.283,0.25-0.439,0.351
			c-0.447,0.287-0.516,0.664-0.561,1.2c-0.074,0.896,0.197,1.478,0.939,1.898c0.268,0.15,0.262,0.36,0.17,0.618
			c-0.326,0.923-0.787,1.762-1.431,2.502c-0.211,0.241-0.424,0.319-0.701,0.161c-0.688-0.396-1.272-0.342-1.979,0.106
			c-0.533,0.342-0.804,0.683-0.879,1.275c-0.092,0.723-0.115,0.709-0.874,0.854c-0.832,0.159-1.654,0.091-2.481-0.05
			c-0.324-0.058-0.519-0.229-0.499-0.522c0.063-0.937-0.519-1.331-1.235-1.739c-0.458-0.261-0.795-0.285-1.254-0.092
			c-0.865,0.365-0.907,0.363-1.423-0.419c-0.396-0.601-0.699-1.263-1.041-1.899c-0.193-0.359-0.161-0.683,0.222-0.888
			c0.709-0.381,0.844-0.96,0.821-1.732C7.681,9.553,7.562,9.159,7.07,8.807c-0.662-0.474-0.687-0.534-0.319-1.26
			c0.374-0.737,0.853-1.42,1.295-2.121c0.149-0.232,0.355-0.31,0.619-0.154c0.744,0.438,1.406,0.365,2.131-0.149
			c0.427-0.303,0.715-0.553,0.767-1.096c0.083-0.875,0.11-0.91,1.027-0.974c0.719-0.05,1.446-0.025,2.165,0.03
			c0.58,0.044,0.597,0.104,0.694,0.678C15.463,3.841,15.48,3.92,15.484,4c0.022,0.557,0.32,0.841,0.8,1.149
			c0.713,0.458,1.338,0.574,2.061,0.141c0.238-0.144,0.43-0.125,0.631,0.106c0.676,0.783,1.188,1.654,1.496,2.643
			C20.486,8.089,20.5,8.141,20.534,8.264z M13.554,13.261c1.365,0.009,2.917-1.043,2.971-2.999c0.043-1.593-1.394-2.983-2.991-2.992
			c-1.64-0.009-3.029,1.406-2.998,3.054C10.566,11.96,11.92,13.277,13.554,13.261z"/>
		<path display="none" fill="none" d="M13.554,13.261c-1.634,0.017-2.988-1.301-3.019-2.937c-0.031-1.647,1.358-3.062,2.998-3.054
			c1.599,0.009,3.035,1.399,2.99,2.992C16.471,12.218,14.919,13.27,13.554,13.261z"/>
	</g>
</g>
<g id="Layer_2" display="none">
	<polygon display="inline" points="10.307,0 12.74,7.488 20.614,7.488 14.244,12.116 16.676,19.605 10.307,14.977 3.937,19.605 
		6.37,12.116 0,7.488 7.874,7.488 	"/>
	
		<linearGradient id="SVGID_2_" gradientUnits="userSpaceOnUse" x1="18.6665" y1="32.7529" x2="18.6665" y2="47.5671" gradientTransform="matrix(1 0 0 -1 -8.3599 51.0547)">
		<stop  offset="0" style="stop-color:#FFFFFF"/>
		<stop  offset="1" style="stop-color:#A8A8A8"/>
	</linearGradient>
	<polygon display="inline" fill="url(#SVGID_2_)" points="10.307,0.521 12.74,8.01 20.614,8.01 14.244,12.638 16.676,20.126 
		10.307,15.498 3.937,20.126 6.37,12.638 0,8.01 7.874,8.01 	"/>
</g>
<g id="Layer_3">
	<g>
		<path d="M14.748,12.929c-0.378-0.161-0.491-0.121-0.685,0.224c-0.438,0.795-0.877,1.587-1.315,2.382
			c-0.196,0.349-0.153,0.485,0.205,0.674c0.086,0.05,0.175,0.098,0.28,0.156c-0.141,0.251-0.275,0.491-0.407,0.732
			c-0.123,0.226-0.091,0.409,0.087,0.51c0.178,0.1,0.343,0.029,0.475-0.202c0.134-0.24,0.269-0.48,0.409-0.728
			c0.137,0.071,0.257,0.141,0.378,0.202c0.215,0.11,0.386,0.071,0.501-0.135c0.487-0.874,0.97-1.752,1.449-2.629
			c0.104-0.186,0.053-0.352-0.123-0.473c-0.047-0.033-0.096-0.061-0.16-0.099c0.033-0.069,0.064-0.133,0.099-0.195
			c0.392-0.709,0.792-1.417,1.183-2.129c0.389-0.706,0.598-1.453,0.592-2.268c-0.014-1.554,0.004-3.108,0.008-4.663
			c0-0.056,0-0.114,0-0.239c0.082,0.101,0.133,0.155,0.176,0.211c1.076,1.459,1.717,3.085,1.889,4.892
			c0.445,4.795-2.629,9.159-7.287,10.341C7.042,20.881,1.5,17.3,0.563,11.743C-0.396,6.064,3.515,1.271,8.587,0.492
			c2.799-0.428,5.343,0.237,7.589,1.992c0.219,0.172,0.309,0.343,0.305,0.631c-0.02,1.83-0.037,3.658-0.004,5.489
			c0.012,0.845-0.176,1.599-0.609,2.318C15.478,11.575,15.124,12.25,14.748,12.929z M10.081,6.469
			C8.093,6.473,6.482,8.086,6.48,10.077c0,1.985,1.615,3.604,3.6,3.605c1.99,0.001,3.607-1.608,3.609-3.597
			C13.691,8.079,12.083,6.468,10.081,6.469z M2.201,6.964C2.4,6.956,2.483,6.823,2.557,6.661c0.883-1.96,2.318-3.359,4.292-4.208
			c0.059-0.025,0.143-0.038,0.171-0.085C7.085,2.271,7.174,2.145,7.15,2.057C7.126,1.955,7.004,1.852,6.897,1.8
			C6.834,1.768,6.717,1.817,6.633,1.852C5.065,2.503,3.777,3.513,2.816,4.913C2.483,5.4,2.222,5.939,1.947,6.466
			C1.818,6.709,1.962,6.956,2.201,6.964z M7.424,3.067c-0.115,0.039-0.186,0.056-0.25,0.084C5.371,3.917,4.062,5.192,3.253,6.979
			c-0.017,0.039-0.035,0.08-0.047,0.123C3.156,7.272,3.219,7.407,3.373,7.48c0.156,0.076,0.299,0.029,0.402-0.112
			c0.039-0.051,0.061-0.115,0.088-0.175c0.729-1.586,1.892-2.724,3.492-3.422C7.426,3.74,7.529,3.721,7.562,3.663
			c0.059-0.102,0.125-0.241,0.1-0.343C7.637,3.22,7.503,3.144,7.424,3.067z M4.797,8.065c0.155,0.002,0.247-0.072,0.342-0.281
			C5.717,6.522,6.646,5.62,7.914,5.065C7.966,5.042,8.04,5.029,8.069,4.988C8.131,4.896,8.22,4.784,8.205,4.695
			C8.189,4.594,8.088,4.477,7.991,4.433c-0.079-0.04-0.212-0.005-0.305,0.035c-1.437,0.611-2.48,1.63-3.132,3.049
			C4.53,7.569,4.505,7.623,4.492,7.678C4.448,7.875,4.597,8.063,4.797,8.065z"/>
		<path d="M12.913,10.073c0.005,1.562-1.25,2.823-2.819,2.828c-1.564,0.006-2.83-1.248-2.833-2.81
			c-0.003-1.572,1.262-2.849,2.828-2.849C11.646,7.243,12.905,8.504,12.913,10.073z M11.12,10.062
			c-0.005-0.577-0.468-1.028-1.045-1.021c-0.576,0.005-1.028,0.471-1.024,1.046c0.003,0.576,0.468,1.028,1.047,1.023
			C10.671,11.107,11.125,10.642,11.12,10.062z"/>
	</g>
	<g>
		
			<linearGradient id="SVGID_3_" gradientUnits="userSpaceOnUse" x1="18.4849" y1="33.96" x2="18.4849" y2="48.2216" gradientTransform="matrix(1 0 0 -1 -8.3599 51.0547)">
			<stop  offset="0" style="stop-color:#FFFFFF"/>
			<stop  offset="1" style="stop-color:#A8A8A8"/>
		</linearGradient>
		<path fill="url(#SVGID_3_)" d="M14.748,13.294c-0.378-0.161-0.491-0.121-0.685,0.224c-0.438,0.795-0.877,1.587-1.315,2.383
			c-0.196,0.349-0.153,0.486,0.205,0.675c0.086,0.047,0.175,0.096,0.28,0.154c-0.141,0.253-0.275,0.491-0.407,0.732
			c-0.123,0.226-0.091,0.409,0.087,0.51c0.178,0.101,0.343,0.029,0.475-0.202c0.134-0.241,0.269-0.479,0.409-0.728
			c0.137,0.073,0.257,0.141,0.378,0.203c0.215,0.109,0.386,0.07,0.501-0.135c0.487-0.875,0.97-1.752,1.449-2.63
			c0.104-0.185,0.053-0.352-0.123-0.474c-0.047-0.032-0.096-0.06-0.16-0.098c0.033-0.069,0.064-0.133,0.099-0.196
			c0.392-0.709,0.792-1.417,1.183-2.129c0.389-0.707,0.598-1.453,0.592-2.269c-0.014-1.553,0.004-3.108,0.008-4.662
			c0-0.057,0-0.114,0-0.24c0.082,0.102,0.133,0.155,0.176,0.212c1.076,1.459,1.717,3.085,1.889,4.891
			c0.445,4.795-2.629,9.16-7.287,10.34C7.042,21.247,1.5,17.666,0.563,12.108C-0.396,6.429,3.515,1.637,8.587,0.857
			c2.799-0.428,5.343,0.237,7.589,1.992c0.219,0.172,0.309,0.342,0.305,0.63c-0.02,1.83-0.037,3.658-0.004,5.489
			c0.012,0.845-0.176,1.599-0.609,2.318C15.478,11.94,15.124,12.615,14.748,13.294z M10.081,6.834
			C8.093,6.838,6.482,8.451,6.48,10.442c0,1.985,1.615,3.604,3.6,3.606c1.99,0,3.607-1.609,3.609-3.598
			C13.691,8.444,12.083,6.833,10.081,6.834z M2.201,7.329C2.4,7.321,2.483,7.188,2.557,7.026c0.884-1.96,2.318-3.359,4.292-4.208
			c0.059-0.025,0.143-0.038,0.171-0.085C7.085,2.637,7.174,2.51,7.15,2.422C7.126,2.32,7.004,2.217,6.897,2.166
			C6.834,2.133,6.717,2.182,6.633,2.217C5.065,2.869,3.777,3.878,2.816,5.279c-0.333,0.487-0.594,1.025-0.87,1.552
			C1.818,7.075,1.962,7.321,2.201,7.329z M7.424,3.432c-0.115,0.039-0.186,0.056-0.25,0.085c-1.803,0.765-3.111,2.04-3.919,3.827
			C3.236,7.383,3.218,7.423,3.206,7.466c-0.05,0.171,0.013,0.306,0.167,0.379c0.156,0.076,0.299,0.029,0.402-0.112
			c0.039-0.051,0.061-0.115,0.088-0.175c0.729-1.586,1.892-2.724,3.492-3.422c0.072-0.031,0.175-0.049,0.208-0.108
			c0.059-0.102,0.125-0.241,0.1-0.343C7.637,3.585,7.503,3.509,7.424,3.432z M4.797,8.43c0.155,0.002,0.247-0.072,0.342-0.281
			C5.717,6.888,6.646,5.985,7.914,5.43C7.966,5.407,8.04,5.395,8.069,5.353C8.131,5.262,8.22,5.149,8.205,5.061
			C8.189,4.959,8.088,4.842,7.991,4.798c-0.079-0.04-0.212-0.005-0.305,0.034c-1.437,0.612-2.48,1.63-3.132,3.049
			C4.53,7.935,4.505,7.988,4.492,8.043C4.448,8.241,4.597,8.428,4.797,8.43z"/>
		<path d="M12.913,10.438c0.005,1.562-1.25,2.823-2.819,2.828c-1.564,0.006-2.83-1.248-2.833-2.81
			c-0.003-1.572,1.262-2.849,2.828-2.849C11.646,7.609,12.905,8.869,12.913,10.438z M11.12,10.428
			c-0.005-0.577-0.468-1.028-1.045-1.021c-0.576,0.005-1.028,0.471-1.024,1.046c0.003,0.575,0.468,1.028,1.048,1.022
			C10.671,11.472,11.125,11.007,11.12,10.428z"/>
	</g>
</g>
</svg>
