<?xml version="1.0" encoding="utf-8"?>
<!-- Generator: Adobe Illustrator 16.0.0, SVG Export Plug-In . SVG Version: 6.00 Build 0)  -->
<!DOCTYPE svg PUBLIC "-//W3C//DTD SVG 1.1//EN" "http://www.w3.org/Graphics/SVG/1.1/DTD/svg11.dtd">
<svg version="1.1" id="Layer_1" xmlns="http://www.w3.org/2000/svg" xmlns:xlink="http://www.w3.org/1999/xlink" x="0px" y="0px"
	 width="33.492px" height="29.197px" viewBox="0 0 33.492 29.197" enable-background="new 0 0 33.492 29.197" xml:space="preserve">
<g display="none">
	<path display="inline" fill="#FFFFFF" d="M3.328,13.036c0-3.491,0-6.981,0-10.471c3.489,0,6.979,0,10.471,0c0,3.49,0,6.98,0,10.471
		C10.308,13.036,6.818,13.036,3.328,13.036z M12.126,6.751c-0.019-0.062-0.024-0.088-0.032-0.114
		c-0.156-0.501-0.415-0.942-0.758-1.339c-0.103-0.117-0.198-0.126-0.319-0.054c-0.366,0.219-0.683,0.161-1.044-0.072
		C9.731,5.016,9.58,4.872,9.569,4.59C9.567,4.55,9.557,4.51,9.55,4.47C9.5,4.179,9.493,4.148,9.199,4.126
		C8.834,4.099,8.466,4.085,8.102,4.111c-0.465,0.033-0.479,0.05-0.521,0.494C7.555,4.879,7.41,5.006,7.193,5.16
		C6.825,5.42,6.49,5.458,6.113,5.235C5.979,5.156,5.875,5.196,5.8,5.314C5.576,5.669,5.333,6.016,5.144,6.389
		C4.958,6.756,4.97,6.787,5.306,7.027c0.249,0.179,0.311,0.378,0.318,0.682C5.636,8.1,5.567,8.393,5.208,8.586
		c-0.194,0.104-0.21,0.267-0.113,0.45c0.173,0.323,0.327,0.658,0.527,0.961c0.261,0.397,0.282,0.398,0.721,0.213
		c0.233-0.099,0.404-0.086,0.636,0.047c0.362,0.207,0.657,0.406,0.625,0.881c-0.01,0.149,0.088,0.236,0.253,0.265
		c0.418,0.071,0.835,0.106,1.256,0.025c0.386-0.073,0.396-0.067,0.443-0.433c0.038-0.302,0.175-0.475,0.445-0.647
		c0.357-0.228,0.654-0.253,1.003-0.055c0.141,0.08,0.249,0.041,0.354-0.081c0.326-0.376,0.561-0.8,0.726-1.267
		c0.046-0.131,0.05-0.238-0.086-0.314c-0.376-0.213-0.516-0.508-0.478-0.962c0.022-0.271,0.058-0.463,0.284-0.608
		c0.079-0.051,0.154-0.113,0.223-0.178C12.075,6.841,12.104,6.783,12.126,6.751z"/>
	<path display="inline" fill="#FFFFFF" d="M12.126,6.751c-0.022,0.032-0.052,0.09-0.098,0.132c-0.067,0.065-0.144,0.127-0.223,0.178
		c-0.228,0.145-0.262,0.336-0.284,0.608C11.485,8.123,11.624,8.418,12,8.631c0.136,0.076,0.132,0.183,0.086,0.314
		c-0.165,0.467-0.398,0.891-0.726,1.267c-0.105,0.122-0.215,0.161-0.354,0.081c-0.348-0.198-0.646-0.173-1.003,0.055
		c-0.271,0.173-0.407,0.346-0.445,0.647c-0.047,0.365-0.059,0.359-0.442,0.433c-0.422,0.081-0.839,0.046-1.257-0.025
		c-0.165-0.028-0.263-0.115-0.253-0.265c0.032-0.475-0.263-0.674-0.625-0.881c-0.231-0.133-0.402-0.146-0.636-0.047
		c-0.438,0.186-0.459,0.185-0.721-0.213C5.422,9.694,5.269,9.359,5.095,9.036C4.998,8.853,5.014,8.69,5.208,8.586
		C5.567,8.393,5.636,8.1,5.624,7.708C5.615,7.405,5.555,7.206,5.306,7.027C4.97,6.787,4.958,6.756,5.144,6.389
		C5.333,6.016,5.576,5.669,5.8,5.314c0.075-0.118,0.179-0.158,0.312-0.079C6.49,5.458,6.825,5.42,7.193,5.16
		c0.218-0.154,0.362-0.28,0.39-0.555c0.042-0.443,0.056-0.461,0.521-0.494C8.467,4.086,8.835,4.099,9.2,4.126
		C9.493,4.148,9.5,4.179,9.55,4.47c0.007,0.04,0.017,0.08,0.019,0.12c0.013,0.282,0.162,0.426,0.404,0.582
		c0.361,0.232,0.678,0.291,1.044,0.072c0.121-0.073,0.218-0.063,0.319,0.054c0.343,0.396,0.602,0.838,0.758,1.339
		C12.102,6.663,12.109,6.689,12.126,6.751z M8.59,9.283c0.69,0.004,1.478-0.528,1.505-1.519C10.118,6.957,9.39,6.252,8.58,6.248
		C7.749,6.243,7.045,6.96,7.061,7.795C7.076,8.624,7.762,9.292,8.59,9.283z"/>
	<path display="inline" fill="#FFFFFF" d="M8.59,9.283C7.762,9.292,7.076,8.624,7.061,7.795C7.045,6.96,7.749,6.243,8.58,6.248
		c0.811,0.004,1.538,0.709,1.516,1.516C10.068,8.754,9.282,9.287,8.59,9.283z"/>
</g>
<path d="M12.157,9.923c-0.038,0.053-0.087,0.152-0.163,0.225c-0.117,0.11-0.243,0.214-0.376,0.3
	c-0.384,0.245-0.442,0.568-0.479,1.025c-0.065,0.767,0.169,1.264,0.804,1.623c0.229,0.129,0.223,0.311,0.145,0.532
	c-0.279,0.787-0.672,1.504-1.223,2.139c-0.18,0.205-0.363,0.271-0.6,0.136c-0.587-0.336-1.089-0.29-1.694,0.091
	c-0.456,0.295-0.687,0.585-0.752,1.094c-0.078,0.618-0.098,0.604-0.748,0.731c-0.709,0.139-1.414,0.078-2.119-0.044
	c-0.278-0.046-0.444-0.193-0.427-0.444c0.054-0.802-0.443-1.14-1.056-1.489c-0.391-0.22-0.679-0.244-1.073-0.076
	c-0.739,0.31-0.776,0.31-1.217-0.358c-0.338-0.514-0.596-1.081-0.89-1.624c-0.165-0.309-0.137-0.584,0.19-0.76
	c0.607-0.326,0.723-0.821,0.702-1.48c-0.015-0.515-0.117-0.851-0.537-1.153C0.079,9.985,0.057,9.933,0.372,9.313
	c0.318-0.631,0.73-1.215,1.107-1.814c0.126-0.2,0.302-0.268,0.527-0.134C2.643,7.74,3.209,7.678,3.83,7.237
	C4.195,6.978,4.442,6.766,4.485,6.3c0.071-0.747,0.094-0.777,0.879-0.833C5.978,5.424,6.6,5.446,7.215,5.493
	c0.496,0.037,0.51,0.089,0.593,0.579C7.819,6.142,7.838,6.208,7.84,6.276c0.02,0.476,0.272,0.72,0.681,0.983
	C9.131,7.65,9.666,7.75,10.284,7.38c0.206-0.124,0.368-0.106,0.541,0.091c0.579,0.669,1.016,1.414,1.278,2.259
	C12.117,9.775,12.128,9.82,12.157,9.923z M6.189,14.197c1.167,0.008,2.495-0.891,2.541-2.564c0.038-1.362-1.19-2.552-2.558-2.558
	c-1.402-0.009-2.591,1.202-2.562,2.61C3.634,13.085,4.791,14.211,6.189,14.197z"/>
<g>
	<path fill="none" d="M-2.694,20.763c0-5.891,0-11.783,0-17.674c5.892,0,11.782,0,17.674,0c0,5.891,0,11.783,0,17.674
		C9.088,20.763,3.198,20.763-2.694,20.763z M12.157,10.155c-0.029-0.104-0.041-0.149-0.055-0.193
		c-0.263-0.846-0.7-1.592-1.278-2.261c-0.172-0.197-0.335-0.213-0.539-0.09C9.667,7.981,9.133,7.883,8.522,7.491
		C8.114,7.228,7.861,6.984,7.841,6.509C7.839,6.44,7.82,6.372,7.809,6.304c-0.084-0.49-0.097-0.542-0.593-0.579
		c-0.615-0.047-1.237-0.07-1.852-0.026C4.58,5.754,4.557,5.784,4.486,6.531c-0.044,0.464-0.29,0.677-0.655,0.938
		c-0.62,0.439-1.186,0.502-1.823,0.128C1.782,7.463,1.607,7.53,1.481,7.731C1.102,8.33,0.691,8.915,0.372,9.544
		c-0.315,0.621-0.293,0.672,0.272,1.077c0.419,0.301,0.522,0.639,0.536,1.151c0.021,0.661-0.095,1.156-0.702,1.482
		c-0.327,0.174-0.354,0.449-0.189,0.758c0.293,0.546,0.552,1.111,0.89,1.625c0.441,0.669,0.479,0.673,1.217,0.359
		c0.394-0.168,0.681-0.145,1.073,0.078c0.611,0.348,1.109,0.686,1.056,1.488c-0.018,0.249,0.149,0.397,0.426,0.443
		c0.706,0.122,1.41,0.182,2.12,0.044c0.649-0.125,0.669-0.114,0.748-0.729c0.065-0.512,0.296-0.8,0.752-1.094
		c0.604-0.384,1.106-0.425,1.694-0.089c0.236,0.135,0.42,0.067,0.601-0.14c0.55-0.631,0.944-1.353,1.223-2.141
		c0.078-0.219,0.084-0.398-0.145-0.528c-0.635-0.36-0.869-0.857-0.804-1.623c0.037-0.458,0.096-0.781,0.479-1.026
		c0.133-0.087,0.259-0.191,0.376-0.301C12.072,10.307,12.12,10.208,12.157,10.155z"/>
	
		<linearGradient id="SVGID_1_" gradientUnits="userSpaceOnUse" x1="14.5227" y1="35.9688" x2="14.5227" y2="43.7735" gradientTransform="matrix(1 0 0 -1 -8.3599 51.0547)">
		<stop  offset="0" style="stop-color:#FFFFFF"/>
		<stop  offset="1" style="stop-color:#A3A3A3"/>
	</linearGradient>
	<path fill="url(#SVGID_1_)" d="M12.157,10.155c-0.038,0.052-0.087,0.152-0.163,0.224c-0.117,0.11-0.243,0.214-0.376,0.301
		c-0.384,0.245-0.442,0.568-0.479,1.026c-0.065,0.767,0.169,1.263,0.804,1.623c0.229,0.13,0.223,0.31,0.145,0.528
		c-0.279,0.788-0.672,1.51-1.223,2.141c-0.18,0.207-0.363,0.274-0.601,0.14c-0.588-0.336-1.089-0.295-1.694,0.089
		c-0.456,0.295-0.687,0.582-0.752,1.094c-0.079,0.618-0.098,0.604-0.748,0.729c-0.71,0.138-1.414,0.078-2.12-0.044
		c-0.277-0.046-0.444-0.194-0.426-0.443c0.053-0.803-0.444-1.141-1.056-1.488c-0.392-0.223-0.679-0.247-1.073-0.078
		c-0.739,0.313-0.776,0.308-1.217-0.359c-0.338-0.514-0.597-1.079-0.89-1.625c-0.165-0.308-0.137-0.582,0.189-0.758
		c0.607-0.326,0.723-0.821,0.702-1.482c-0.014-0.511-0.116-0.85-0.536-1.151c-0.566-0.405-0.588-0.456-0.272-1.077
		C0.691,8.915,1.102,8.33,1.48,7.731c0.126-0.2,0.302-0.269,0.527-0.134C2.643,7.971,3.209,7.908,3.83,7.469
		c0.365-0.26,0.612-0.473,0.655-0.938c0.071-0.747,0.094-0.778,0.879-0.833C5.978,5.655,6.6,5.678,7.215,5.725
		c0.496,0.036,0.51,0.089,0.593,0.58C7.819,6.372,7.838,6.44,7.84,6.508c0.02,0.477,0.272,0.72,0.681,0.982
		c0.611,0.393,1.146,0.491,1.765,0.122c0.204-0.123,0.366-0.107,0.539,0.09c0.579,0.669,1.016,1.415,1.278,2.26
		C12.117,10.006,12.128,10.051,12.157,10.155z M6.189,14.427c1.167,0.008,2.495-0.891,2.541-2.562
		c0.038-1.362-1.19-2.551-2.558-2.56c-1.402-0.007-2.591,1.203-2.562,2.612C3.634,13.316,4.791,14.443,6.189,14.427z"/>
	<path display="none" fill="none" d="M6.189,14.427c-1.397,0.017-2.556-1.11-2.58-2.51C3.58,10.508,4.769,9.298,6.171,9.305
		c1.368,0.009,2.596,1.197,2.558,2.56C8.683,13.536,7.356,14.435,6.189,14.427z"/>
</g>
<g display="none">
	<path display="inline" fill="#FFFFFF" d="M8.563,19.348c0-3.49,0-6.979,0-10.471c3.49,0,6.98,0,10.472,0c0,3.49,0,6.98,0,10.471
		C15.543,19.348,12.053,19.348,8.563,19.348z M17.362,13.063c-0.018-0.062-0.023-0.088-0.031-0.114
		c-0.156-0.501-0.415-0.942-0.759-1.339c-0.102-0.117-0.197-0.126-0.318-0.054c-0.366,0.219-0.684,0.161-1.044-0.072
		c-0.242-0.156-0.394-0.3-0.404-0.582c-0.002-0.04-0.012-0.081-0.019-0.121c-0.051-0.291-0.059-0.321-0.353-0.344
		c-0.364-0.027-0.732-0.041-1.097-0.015c-0.465,0.033-0.479,0.05-0.521,0.494c-0.025,0.275-0.172,0.401-0.389,0.555
		c-0.368,0.261-0.703,0.298-1.08,0.076c-0.134-0.079-0.238-0.039-0.312,0.079c-0.225,0.355-0.468,0.701-0.656,1.074
		c-0.188,0.368-0.174,0.398,0.162,0.638c0.249,0.179,0.31,0.378,0.317,0.682c0.013,0.393-0.057,0.685-0.416,0.877
		c-0.193,0.104-0.21,0.269-0.112,0.451c0.173,0.322,0.326,0.656,0.526,0.961c0.262,0.396,0.283,0.398,0.722,0.213
		c0.232-0.1,0.403-0.086,0.636,0.047c0.362,0.207,0.657,0.406,0.625,0.882c-0.01,0.147,0.088,0.235,0.253,0.264
		c0.418,0.072,0.835,0.106,1.256,0.025c0.385-0.072,0.396-0.066,0.443-0.433c0.038-0.303,0.175-0.475,0.444-0.647
		c0.358-0.228,0.655-0.252,1.003-0.056c0.142,0.08,0.249,0.041,0.355-0.08c0.326-0.377,0.56-0.801,0.725-1.268
		c0.046-0.131,0.051-0.238-0.086-0.314c-0.376-0.213-0.515-0.508-0.477-0.96c0.021-0.271,0.057-0.463,0.284-0.608
		c0.079-0.051,0.153-0.113,0.223-0.178C17.31,13.154,17.339,13.095,17.362,13.063z"/>
	<path display="inline" fill="#FFFFFF" d="M17.362,13.063c-0.021,0.032-0.052,0.09-0.097,0.132
		c-0.068,0.065-0.144,0.127-0.223,0.178c-0.229,0.145-0.263,0.336-0.284,0.608c-0.038,0.455,0.101,0.75,0.477,0.96
		c0.137,0.076,0.133,0.185,0.086,0.314c-0.165,0.467-0.397,0.891-0.725,1.268c-0.105,0.121-0.215,0.16-0.354,0.08
		c-0.349-0.196-0.646-0.172-1.004,0.056c-0.271,0.174-0.406,0.346-0.444,0.647c-0.047,0.365-0.06,0.359-0.443,0.433
		c-0.421,0.081-0.838,0.047-1.256-0.025c-0.165-0.026-0.263-0.114-0.253-0.264c0.032-0.476-0.263-0.675-0.625-0.882
		c-0.232-0.133-0.403-0.146-0.636-0.047c-0.438,0.187-0.459,0.185-0.722-0.213c-0.2-0.305-0.354-0.639-0.526-0.961
		c-0.099-0.184-0.081-0.348,0.112-0.451c0.359-0.192,0.429-0.485,0.416-0.877c-0.009-0.303-0.068-0.502-0.317-0.682
		c-0.335-0.24-0.349-0.271-0.162-0.638c0.188-0.373,0.432-0.719,0.656-1.074c0.074-0.118,0.179-0.158,0.312-0.079
		c0.376,0.222,0.712,0.185,1.08-0.076c0.217-0.154,0.362-0.28,0.389-0.555c0.042-0.443,0.057-0.461,0.521-0.494
		c0.364-0.025,0.731-0.012,1.097,0.015c0.294,0.022,0.302,0.053,0.353,0.344c0.007,0.04,0.017,0.081,0.019,0.121
		c0.012,0.282,0.162,0.426,0.404,0.582c0.361,0.232,0.678,0.291,1.044,0.072c0.121-0.073,0.218-0.063,0.319,0.054
		c0.343,0.396,0.602,0.838,0.758,1.339C17.337,12.975,17.344,13.001,17.362,13.063z M13.826,15.596
		c0.69,0.004,1.478-0.529,1.505-1.52c0.021-0.807-0.705-1.512-1.517-1.516c-0.831-0.004-1.535,0.712-1.519,1.547
		C12.312,14.936,12.998,15.604,13.826,15.596z"/>
	<path display="inline" fill="#FFFFFF" d="M13.826,15.596c-0.828,0.008-1.515-0.66-1.529-1.488
		c-0.017-0.834,0.688-1.551,1.519-1.546c0.812,0.004,1.538,0.709,1.517,1.516C15.303,15.066,14.517,15.6,13.826,15.596z"/>
</g>
<path d="M16.654,11.856c0.047,0.047,0.135,0.113,0.192,0.2c0.088,0.132,0.168,0.275,0.229,0.421
	c0.175,0.421,0.484,0.535,0.928,0.652c0.743,0.196,1.275,0.054,1.737-0.508c0.167-0.204,0.346-0.165,0.55-0.05
	c0.727,0.415,1.362,0.924,1.892,1.579c0.173,0.212,0.203,0.403,0.028,0.614c-0.435,0.519-0.476,1.02-0.206,1.683
	c0.211,0.5,0.456,0.777,0.943,0.931c0.598,0.188,0.581,0.203,0.589,0.864c0.013,0.723-0.169,1.409-0.412,2.081
	c-0.094,0.266-0.27,0.403-0.511,0.343c-0.782-0.192-1.203,0.238-1.652,0.778c-0.286,0.35-0.357,0.627-0.264,1.046
	c0.179,0.78,0.17,0.816-0.566,1.134c-0.563,0.245-1.168,0.397-1.754,0.595c-0.332,0.108-0.599,0.029-0.714-0.322
	c-0.215-0.654-0.682-0.854-1.336-0.953c-0.506-0.071-0.856-0.028-1.227,0.33c-0.498,0.487-0.55,0.501-1.106,0.08
	c-0.565-0.422-1.069-0.93-1.593-1.406c-0.173-0.161-0.21-0.346-0.04-0.544c0.479-0.561,0.518-1.13,0.193-1.817
	c-0.19-0.404-0.358-0.683-0.808-0.809c-0.724-0.202-0.75-0.229-0.667-1.014c0.065-0.61,0.195-1.219,0.349-1.815
	c0.124-0.481,0.177-0.486,0.674-0.482c0.071,0,0.14-0.007,0.208,0.004c0.471,0.063,0.757-0.145,1.086-0.5
	c0.494-0.534,0.685-1.042,0.426-1.715c-0.085-0.222-0.04-0.38,0.184-0.515c0.76-0.452,1.571-0.752,2.448-0.864
	C16.499,11.871,16.545,11.869,16.654,11.856z M19.82,18.481c0.21-1.147-0.443-2.612-2.082-2.95
	c-1.334-0.274-2.721,0.725-2.964,2.072c-0.254,1.377,0.729,2.759,2.12,2.978C18.276,20.803,19.588,19.858,19.82,18.481z"/>
<g>
	<path fill="none" d="M24.73,28.374c-5.8-1.031-11.602-2.058-17.402-3.089c1.03-5.799,2.059-11.602,3.089-17.402
		c5.8,1.03,11.601,2.059,17.402,3.089C26.788,16.774,25.76,22.574,24.73,28.374z M16.882,11.898c-0.108,0.011-0.154,0.015-0.2,0.019
		c-0.88,0.113-1.69,0.412-2.449,0.866c-0.226,0.133-0.268,0.292-0.183,0.513c0.256,0.675,0.068,1.183-0.427,1.716
		c-0.331,0.357-0.614,0.563-1.088,0.499c-0.066-0.008-0.136-0.006-0.206-0.006c-0.498-0.002-0.55,0.003-0.673,0.484
		c-0.155,0.595-0.286,1.205-0.349,1.818c-0.083,0.782-0.058,0.809,0.665,1.009c0.45,0.127,0.617,0.406,0.809,0.813
		c0.326,0.687,0.288,1.256-0.193,1.816c-0.171,0.198-0.134,0.383,0.04,0.54c0.524,0.478,1.028,0.983,1.593,1.411
		c0.557,0.416,0.609,0.402,1.107-0.082c0.371-0.361,0.721-0.402,1.228-0.326c0.653,0.094,1.12,0.294,1.335,0.95
		c0.114,0.351,0.383,0.428,0.713,0.317c0.59-0.191,1.19-0.348,1.757-0.59c0.733-0.318,0.743-0.353,0.566-1.137
		c-0.099-0.417-0.024-0.696,0.265-1.043c0.448-0.541,0.867-0.974,1.646-0.779c0.245,0.061,0.421-0.078,0.515-0.344
		c0.243-0.675,0.427-1.355,0.413-2.08c-0.01-0.662,0.006-0.678-0.587-0.864c-0.49-0.151-0.736-0.428-0.946-0.932
		c-0.271-0.663-0.225-1.161,0.209-1.682c0.175-0.21,0.138-0.4-0.031-0.616c-0.525-0.651-1.164-1.164-1.892-1.577
		c-0.205-0.114-0.382-0.152-0.549,0.051c-0.464,0.56-0.996,0.706-1.739,0.509c-0.444-0.119-0.75-0.232-0.924-0.653
		c-0.063-0.145-0.143-0.288-0.231-0.421C17.017,12.011,16.929,11.945,16.882,11.898z"/>
	
		<linearGradient id="SVGID_2_" gradientUnits="userSpaceOnUse" x1="-597.0334" y1="61.6504" x2="-597.0334" y2="69.4551" gradientTransform="matrix(0.1748 -0.9846 -0.9846 -0.1748 185.7527 -558.401)">
		<stop  offset="0" style="stop-color:#FFFFFF"/>
		<stop  offset="1" style="stop-color:#A3A3A3"/>
	</linearGradient>
	<path fill="url(#SVGID_2_)" d="M16.882,11.898c0.047,0.047,0.135,0.113,0.191,0.2c0.088,0.134,0.168,0.277,0.231,0.422
		c0.174,0.422,0.479,0.535,0.924,0.653c0.743,0.197,1.275,0.052,1.738-0.509c0.168-0.203,0.346-0.165,0.55-0.051
		c0.727,0.413,1.367,0.926,1.892,1.577c0.169,0.214,0.207,0.405,0.03,0.616c-0.433,0.521-0.479,1.019-0.208,1.682
		c0.21,0.504,0.455,0.78,0.945,0.932c0.594,0.187,0.579,0.203,0.588,0.863c0.013,0.727-0.17,1.407-0.413,2.08
		c-0.094,0.265-0.27,0.404-0.515,0.345c-0.778-0.194-1.197,0.238-1.646,0.78c-0.289,0.346-0.363,0.625-0.266,1.042
		c0.178,0.782,0.168,0.817-0.565,1.136c-0.566,0.243-1.167,0.399-1.757,0.591c-0.33,0.109-0.599,0.033-0.713-0.318
		c-0.215-0.655-0.682-0.855-1.335-0.949c-0.507-0.077-0.857-0.035-1.228,0.326c-0.498,0.485-0.55,0.499-1.107,0.08
		c-0.564-0.427-1.068-0.931-1.593-1.408c-0.173-0.159-0.209-0.345-0.04-0.542c0.481-0.561,0.519-1.13,0.193-1.816
		c-0.19-0.405-0.357-0.685-0.809-0.812c-0.723-0.201-0.749-0.226-0.665-1.01c0.063-0.611,0.195-1.223,0.349-1.818
		c0.122-0.481,0.175-0.485,0.673-0.483c0.07,0,0.14-0.002,0.205,0.006c0.475,0.063,0.757-0.142,1.089-0.499
		c0.494-0.534,0.684-1.042,0.427-1.716c-0.085-0.222-0.042-0.38,0.183-0.513c0.76-0.454,1.569-0.753,2.449-0.866
		C16.729,11.912,16.775,11.908,16.882,11.898z M20.049,18.521c0.209-1.148-0.448-2.612-2.084-2.951
		c-1.333-0.274-2.721,0.728-2.966,2.072c-0.253,1.377,0.731,2.761,2.121,2.98C18.505,20.843,19.816,19.9,20.049,18.521z"/>
	<path display="none" fill="none" d="M20.049,18.521c-0.233,1.379-1.544,2.321-2.929,2.103c-1.39-0.218-2.374-1.603-2.121-2.98
		c0.246-1.345,1.633-2.348,2.966-2.07C19.601,15.909,20.258,17.373,20.049,18.521z"/>
</g>
<g display="none">
	<path display="inline" fill="#FFFFFF" d="M11.5,10.475c0-3.49,0-6.98,0-10.471c3.49,0,6.979,0,10.471,0c0,3.49,0,6.98,0,10.471
		C18.481,10.475,14.991,10.475,11.5,10.475z M20.299,4.191c-0.019-0.062-0.024-0.088-0.032-0.114
		c-0.156-0.501-0.415-0.942-0.758-1.339c-0.102-0.117-0.198-0.126-0.319-0.054c-0.365,0.219-0.683,0.161-1.044-0.072
		c-0.242-0.156-0.393-0.3-0.403-0.582c-0.002-0.04-0.013-0.08-0.02-0.12c-0.05-0.291-0.058-0.321-0.352-0.344
		c-0.364-0.027-0.732-0.041-1.098-0.015c-0.465,0.033-0.479,0.05-0.521,0.494c-0.026,0.275-0.172,0.401-0.39,0.555
		c-0.366,0.261-0.702,0.298-1.079,0.076c-0.134-0.079-0.238-0.039-0.312,0.079c-0.225,0.355-0.467,0.701-0.656,1.074
		c-0.187,0.368-0.174,0.398,0.162,0.638c0.248,0.179,0.31,0.378,0.318,0.682c0.012,0.392-0.058,0.684-0.416,0.877
		c-0.194,0.104-0.211,0.268-0.113,0.45c0.174,0.323,0.326,0.657,0.527,0.962c0.262,0.396,0.283,0.398,0.721,0.213
		c0.232-0.1,0.404-0.086,0.636,0.047c0.362,0.207,0.657,0.406,0.626,0.881c-0.011,0.148,0.089,0.236,0.252,0.264
		c0.42,0.072,0.837,0.107,1.258,0.025c0.385-0.072,0.396-0.066,0.442-0.432c0.038-0.303,0.175-0.475,0.445-0.648
		c0.358-0.227,0.655-0.252,1.003-0.055c0.141,0.08,0.249,0.041,0.355-0.08c0.325-0.377,0.56-0.801,0.725-1.268
		c0.046-0.131,0.05-0.238-0.086-0.314c-0.376-0.213-0.516-0.508-0.478-0.961c0.022-0.271,0.058-0.463,0.284-0.608
		c0.079-0.051,0.154-0.113,0.224-0.178C20.248,4.281,20.277,4.223,20.299,4.191z"/>
	<path display="inline" fill="#FFFFFF" d="M20.299,4.191c-0.022,0.032-0.052,0.09-0.097,0.132c-0.068,0.065-0.145,0.127-0.224,0.178
		c-0.228,0.145-0.262,0.336-0.284,0.608c-0.037,0.454,0.102,0.749,0.478,0.961c0.136,0.076,0.132,0.184,0.086,0.314
		c-0.165,0.467-0.398,0.891-0.725,1.268c-0.106,0.121-0.216,0.16-0.355,0.08c-0.348-0.197-0.645-0.172-1.003,0.055
		c-0.271,0.174-0.407,0.346-0.445,0.648c-0.047,0.365-0.059,0.359-0.442,0.432c-0.421,0.082-0.838,0.047-1.258-0.025
		c-0.163-0.027-0.263-0.115-0.252-0.264c0.031-0.475-0.264-0.674-0.626-0.881c-0.23-0.133-0.402-0.146-0.636-0.047
		c-0.438,0.186-0.459,0.184-0.721-0.213c-0.201-0.305-0.354-0.639-0.527-0.962c-0.098-0.183-0.081-0.347,0.113-0.45
		c0.359-0.193,0.428-0.486,0.416-0.877c-0.01-0.303-0.07-0.503-0.318-0.682c-0.336-0.24-0.349-0.271-0.162-0.638
		c0.189-0.373,0.433-0.719,0.656-1.074c0.074-0.118,0.18-0.158,0.312-0.079c0.377,0.222,0.713,0.185,1.08-0.076
		c0.217-0.154,0.361-0.28,0.389-0.555c0.042-0.443,0.056-0.461,0.521-0.494c0.364-0.025,0.732-0.012,1.098,0.015
		c0.294,0.022,0.302,0.053,0.352,0.344C17.73,1.95,17.74,1.99,17.742,2.03c0.012,0.282,0.161,0.426,0.403,0.582
		c0.361,0.232,0.679,0.291,1.044,0.072c0.121-0.073,0.219-0.063,0.319,0.054c0.343,0.396,0.602,0.838,0.758,1.339
		C20.275,4.103,20.282,4.129,20.299,4.191z M16.763,6.723c0.691,0.004,1.479-0.529,1.505-1.52c0.022-0.807-0.705-1.512-1.516-1.516
		c-0.83-0.004-1.535,0.712-1.52,1.547C15.249,6.063,15.935,6.731,16.763,6.723z"/>
	<path display="inline" fill="#FFFFFF" d="M16.763,6.723c-0.828,0.008-1.515-0.66-1.529-1.488c-0.017-0.835,0.688-1.552,1.52-1.547
		c0.811,0.004,1.538,0.709,1.516,1.516C18.241,6.194,17.455,6.727,16.763,6.723z"/>
</g>
<path d="M23.485,2.902c-0.021,0.062-0.042,0.168-0.098,0.26c-0.078,0.138-0.17,0.273-0.279,0.392
	c-0.3,0.342-0.267,0.667-0.177,1.119c0.149,0.753,0.511,1.168,1.218,1.34c0.258,0.06,0.301,0.237,0.286,0.471
	c-0.054,0.833-0.233,1.63-0.588,2.393c-0.118,0.247-0.274,0.359-0.541,0.295c-0.655-0.163-1.125,0.019-1.602,0.554
	c-0.36,0.406-0.501,0.749-0.424,1.254c0.094,0.618,0.07,0.611-0.521,0.909c-0.644,0.328-1.338,0.465-2.052,0.541
	c-0.276,0.031-0.479-0.066-0.53-0.312c-0.17-0.784-0.74-0.975-1.424-1.144c-0.438-0.104-0.723-0.047-1.053,0.222
	c-0.625,0.502-0.66,0.511-1.269-0.01c-0.468-0.402-0.871-0.877-1.303-1.319c-0.243-0.25-0.292-0.524-0.024-0.782
	c0.493-0.481,0.471-0.987,0.27-1.616c-0.158-0.488-0.348-0.784-0.832-0.959c-0.657-0.234-0.692-0.279-0.558-0.961
	c0.135-0.695,0.369-1.369,0.568-2.048c0.064-0.227,0.217-0.341,0.47-0.273c0.714,0.186,1.243-0.029,1.719-0.623
	c0.28-0.35,0.458-0.622,0.374-1.082c-0.138-0.738-0.125-0.773,0.615-1.042c0.581-0.209,1.185-0.359,1.79-0.483
	c0.485-0.1,0.512-0.053,0.727,0.394c0.029,0.064,0.065,0.123,0.086,0.188c0.149,0.453,0.463,0.618,0.926,0.758
	c0.694,0.21,1.235,0.16,1.729-0.367c0.164-0.174,0.324-0.204,0.541-0.062c0.74,0.487,1.367,1.082,1.852,1.823
	C23.405,2.77,23.428,2.811,23.485,2.902z M18.919,8.65c1.122-0.314,2.151-1.543,1.737-3.164c-0.337-1.321-1.844-2.126-3.163-1.758
	c-1.349,0.377-2.161,1.867-1.746,3.213C16.155,8.279,17.577,9.046,18.919,8.65z"/>
<g>
	<path fill="none" d="M12.177,17.398c-1.616-5.664-3.233-11.33-4.848-16.994c5.665-1.617,11.328-3.232,16.996-4.849
		c1.615,5.665,3.231,11.329,4.849,16.995C23.506,14.167,17.843,15.784,12.177,17.398z M23.549,3.126
		c-0.059-0.093-0.08-0.133-0.106-0.171c-0.485-0.742-1.108-1.338-1.85-1.822c-0.219-0.143-0.381-0.114-0.543,0.062
		c-0.492,0.524-1.034,0.577-1.729,0.368c-0.465-0.141-0.775-0.306-0.925-0.758c-0.022-0.065-0.058-0.125-0.085-0.187
		c-0.216-0.449-0.242-0.495-0.729-0.395c-0.604,0.125-1.209,0.273-1.788,0.484c-0.74,0.268-0.754,0.302-0.618,1.042
		c0.084,0.459-0.094,0.731-0.374,1.081c-0.475,0.594-1.003,0.81-1.718,0.624c-0.253-0.067-0.404,0.047-0.471,0.273
		c-0.199,0.681-0.432,1.354-0.567,2.048c-0.132,0.684-0.097,0.727,0.559,0.96c0.487,0.176,0.677,0.472,0.833,0.959
		c0.202,0.628,0.227,1.138-0.268,1.617c-0.267,0.259-0.219,0.534,0.024,0.782c0.433,0.445,0.834,0.917,1.303,1.318
		c0.608,0.522,0.644,0.516,1.267,0.012c0.332-0.27,0.617-0.327,1.053-0.217c0.685,0.165,1.257,0.354,1.424,1.14
		c0.051,0.247,0.256,0.344,0.532,0.312c0.713-0.076,1.407-0.213,2.053-0.542c0.588-0.298,0.612-0.29,0.519-0.906
		c-0.078-0.509,0.065-0.851,0.423-1.258c0.476-0.535,0.945-0.713,1.604-0.55c0.264,0.064,0.422-0.053,0.539-0.299
		c0.355-0.76,0.536-1.558,0.588-2.393c0.015-0.233-0.028-0.409-0.285-0.47c-0.709-0.172-1.07-0.586-1.22-1.341
		c-0.087-0.451-0.12-0.776,0.181-1.118c0.106-0.12,0.198-0.256,0.28-0.392C23.504,3.294,23.527,3.187,23.549,3.126z"/>
	
		<linearGradient id="SVGID_3_" gradientUnits="userSpaceOnUse" x1="-89.9695" y1="-23.8579" x2="-89.9695" y2="-16.0522" gradientTransform="matrix(0.9616 -0.2744 -0.2744 -0.9616 99.1044 -38.1202)">
		<stop  offset="0" style="stop-color:#FFFFFF"/>
		<stop  offset="1" style="stop-color:#A3A3A3"/>
	</linearGradient>
	<path fill="url(#SVGID_3_)" d="M23.549,3.126c-0.022,0.062-0.045,0.169-0.095,0.259c-0.082,0.137-0.174,0.272-0.28,0.392
		c-0.302,0.342-0.268,0.667-0.181,1.119c0.149,0.754,0.511,1.168,1.22,1.341c0.256,0.061,0.3,0.236,0.285,0.47
		c-0.052,0.835-0.232,1.633-0.588,2.393c-0.117,0.245-0.275,0.363-0.539,0.299c-0.659-0.164-1.129,0.015-1.604,0.55
		c-0.357,0.408-0.501,0.749-0.423,1.258c0.094,0.615,0.069,0.608-0.519,0.906c-0.646,0.328-1.34,0.466-2.053,0.542
		c-0.276,0.032-0.481-0.065-0.532-0.312c-0.167-0.786-0.739-0.974-1.424-1.14c-0.438-0.109-0.722-0.051-1.053,0.218
		c-0.623,0.503-0.659,0.51-1.267-0.012c-0.469-0.4-0.87-0.873-1.303-1.318c-0.244-0.25-0.292-0.523-0.024-0.782
		c0.495-0.479,0.47-0.987,0.268-1.617c-0.156-0.488-0.346-0.784-0.833-0.96c-0.655-0.233-0.69-0.276-0.559-0.959
		c0.135-0.693,0.368-1.368,0.567-2.049c0.068-0.225,0.219-0.339,0.471-0.272c0.715,0.187,1.243-0.031,1.718-0.624
		c0.28-0.349,0.458-0.622,0.374-1.081c-0.136-0.739-0.122-0.773,0.618-1.042c0.579-0.211,1.183-0.358,1.788-0.484
		c0.488-0.1,0.514-0.054,0.729,0.395c0.027,0.062,0.063,0.123,0.085,0.187c0.149,0.452,0.46,0.617,0.925,0.759
		c0.694,0.208,1.235,0.157,1.729-0.369c0.162-0.174,0.324-0.204,0.543-0.061c0.741,0.485,1.365,1.082,1.85,1.823
		C23.469,2.993,23.49,3.033,23.549,3.126z M18.982,8.873c1.122-0.314,2.151-1.544,1.739-3.163c-0.338-1.321-1.845-2.127-3.161-1.76
		c-1.35,0.377-2.164,1.87-1.751,3.216C16.218,8.504,17.642,9.269,18.982,8.873z"/>
	<path display="none" fill="none" d="M18.982,8.873c-1.34,0.395-2.765-0.369-3.174-1.708c-0.413-1.346,0.401-2.839,1.751-3.216
		c1.316-0.367,2.823,0.439,3.161,1.759C21.133,7.329,20.104,8.559,18.982,8.873z"/>
</g>
</svg>
