<?xml version="1.0" encoding="utf-8"?>
<!-- Generator: Adobe Illustrator 16.0.0, SVG Export Plug-In . SVG Version: 6.00 Build 0)  -->
<!DOCTYPE svg PUBLIC "-//W3C//DTD SVG 1.1//EN" "http://www.w3.org/Graphics/SVG/1.1/DTD/svg11.dtd">
<svg version="1.1" id="Layer_1" xmlns="http://www.w3.org/2000/svg" xmlns:xlink="http://www.w3.org/1999/xlink" x="0px" y="0px"
	 width="30.083px" height="29.833px" viewBox="0 0 30.083 29.833" enable-background="new 0 0 30.083 29.833" xml:space="preserve">
<g id="Layer_1_1_" display="none">
	<g display="inline">
		<path fill="#FFFFFF" d="M3.167,23.418c0-6.891,0-13.779,0-20.668c6.889,0,13.778,0,20.667,0c0,6.889,0,13.777,0,20.668
			C16.945,23.418,10.056,23.418,3.167,23.418z M20.534,11.013c-0.033-0.123-0.048-0.175-0.062-0.226
			c-0.309-0.989-0.818-1.86-1.496-2.643c-0.199-0.231-0.391-0.25-0.629-0.106c-0.723,0.433-1.35,0.317-2.061-0.141
			c-0.479-0.308-0.777-0.592-0.8-1.149c-0.004-0.08-0.022-0.159-0.036-0.239c-0.099-0.573-0.114-0.634-0.694-0.678
			c-0.719-0.055-1.446-0.08-2.165-0.03c-0.917,0.064-0.944,0.099-1.027,0.974c-0.052,0.543-0.339,0.792-0.767,1.096
			C10.071,8.386,9.409,8.459,8.666,8.02c-0.264-0.156-0.47-0.077-0.618,0.156C7.606,8.877,7.126,9.56,6.753,10.297
			c-0.368,0.726-0.343,0.786,0.319,1.26c0.492,0.353,0.611,0.747,0.629,1.345c0.023,0.772-0.112,1.352-0.821,1.732
			c-0.383,0.205-0.415,0.527-0.222,0.89c0.341,0.638,0.644,1.3,1.041,1.897c0.516,0.783,0.558,0.785,1.423,0.42
			c0.459-0.194,0.796-0.17,1.254,0.093c0.716,0.407,1.298,0.803,1.235,1.737c-0.02,0.295,0.175,0.468,0.499,0.522
			c0.827,0.142,1.649,0.209,2.481,0.05c0.759-0.146,0.782-0.134,0.874-0.854c0.075-0.596,0.346-0.936,0.881-1.277
			c0.705-0.447,1.293-0.5,1.979-0.105c0.277,0.158,0.49,0.08,0.701-0.16c0.645-0.74,1.104-1.578,1.43-2.502
			c0.092-0.258,0.101-0.469-0.168-0.617c-0.744-0.422-1.018-1.003-0.94-1.899c0.045-0.536,0.11-0.913,0.562-1.2
			c0.155-0.101,0.305-0.222,0.438-0.351C20.432,11.191,20.491,11.076,20.534,11.013z"/>
		<path fill="#FFFFFF" d="M20.534,11.013c-0.043,0.062-0.103,0.178-0.189,0.261c-0.137,0.129-0.283,0.25-0.439,0.351
			c-0.447,0.287-0.516,0.664-0.561,1.2c-0.074,0.896,0.197,1.478,0.939,1.899c0.268,0.148,0.262,0.359,0.17,0.617
			c-0.326,0.924-0.787,1.762-1.431,2.502c-0.211,0.24-0.424,0.318-0.701,0.16c-0.688-0.395-1.272-0.342-1.979,0.105
			c-0.533,0.344-0.804,0.684-0.879,1.277c-0.092,0.721-0.115,0.709-0.874,0.854c-0.832,0.159-1.654,0.092-2.481-0.05
			c-0.324-0.058-0.519-0.229-0.499-0.522c0.063-0.937-0.519-1.33-1.235-1.737c-0.458-0.263-0.795-0.287-1.254-0.093
			c-0.865,0.365-0.907,0.363-1.423-0.42c-0.396-0.601-0.699-1.262-1.041-1.897c-0.193-0.36-0.161-0.685,0.222-0.89
			c0.709-0.38,0.844-0.959,0.821-1.732c-0.018-0.599-0.137-0.993-0.629-1.345c-0.662-0.474-0.687-0.534-0.319-1.26
			c0.374-0.737,0.853-1.42,1.295-2.121C8.193,7.943,8.4,7.864,8.664,8.02c0.744,0.438,1.406,0.365,2.131-0.149
			c0.427-0.303,0.715-0.553,0.767-1.096c0.083-0.875,0.11-0.91,1.027-0.974c0.719-0.05,1.446-0.025,2.165,0.03
			c0.58,0.044,0.596,0.104,0.694,0.678c0.014,0.08,0.032,0.159,0.036,0.239c0.021,0.557,0.317,0.841,0.8,1.149
			c0.711,0.458,1.338,0.574,2.059,0.141c0.24-0.144,0.432-0.125,0.631,0.106c0.678,0.783,1.188,1.654,1.496,2.643
			C20.486,10.838,20.5,10.891,20.534,11.013z M13.554,16.01c1.365,0.008,2.917-1.043,2.971-2.998
			c0.043-1.593-1.394-2.983-2.991-2.992c-1.64-0.009-3.029,1.406-2.998,3.054C10.566,14.709,11.92,16.027,13.554,16.01z"/>
		<path fill="#FFFFFF" d="M13.554,16.01c-1.634,0.018-2.988-1.301-3.019-2.937c-0.031-1.647,1.358-3.062,2.998-3.054
			c1.599,0.009,3.035,1.399,2.99,2.992C16.471,14.967,14.919,16.018,13.554,16.01z"/>
	</g>
	<path display="inline" d="M20.534,7.993c-0.043,0.062-0.103,0.178-0.189,0.261c-0.137,0.129-0.283,0.25-0.439,0.351
		c-0.447,0.287-0.516,0.664-0.561,1.2c-0.074,0.896,0.197,1.478,0.939,1.898c0.268,0.15,0.262,0.361,0.17,0.619
		c-0.326,0.922-0.787,1.761-1.431,2.502c-0.211,0.24-0.424,0.318-0.701,0.16c-0.688-0.395-1.272-0.342-1.979,0.106
		c-0.533,0.343-0.804,0.683-0.879,1.276c-0.092,0.722-0.115,0.709-0.874,0.854c-0.832,0.159-1.654,0.09-2.481-0.051
		c-0.324-0.056-0.519-0.229-0.499-0.521c0.063-0.938-0.519-1.332-1.235-1.738c-0.458-0.262-0.795-0.286-1.254-0.094
		c-0.865,0.365-0.907,0.363-1.423-0.418c-0.396-0.602-0.699-1.264-1.041-1.898c-0.193-0.36-0.161-0.683,0.222-0.888
		c0.709-0.381,0.844-0.96,0.821-1.732C7.681,9.282,7.562,8.888,7.07,8.536c-0.662-0.474-0.687-0.534-0.319-1.26
		c0.374-0.737,0.853-1.42,1.295-2.121c0.149-0.231,0.355-0.311,0.619-0.154c0.744,0.438,1.406,0.365,2.131-0.149
		c0.427-0.303,0.715-0.553,0.767-1.096c0.083-0.875,0.11-0.91,1.027-0.974c0.719-0.05,1.446-0.025,2.165,0.03
		c0.58,0.044,0.597,0.104,0.694,0.678c0.014,0.08,0.031,0.159,0.035,0.239c0.022,0.557,0.32,0.841,0.8,1.149
		c0.713,0.458,1.338,0.574,2.061,0.141c0.238-0.144,0.43-0.125,0.631,0.106c0.676,0.783,1.188,1.654,1.496,2.643
		C20.486,7.818,20.5,7.871,20.534,7.993z M13.554,12.99c1.365,0.008,2.917-1.043,2.971-2.999c0.043-1.593-1.394-2.983-2.991-2.992
		c-1.64-0.009-3.029,1.406-2.998,3.054C10.566,11.689,11.92,13.007,13.554,12.99z"/>
	<g display="inline">
		<path fill="none" d="M3.167,20.668c0-6.891,0-13.779,0-20.668c6.889,0,13.778,0,20.667,0c0,6.889,0,13.777,0,20.668
			C16.945,20.668,10.056,20.668,3.167,20.668z M20.534,8.264c-0.033-0.123-0.048-0.175-0.062-0.226
			c-0.309-0.989-0.818-1.86-1.496-2.643c-0.199-0.231-0.391-0.25-0.629-0.106c-0.723,0.433-1.35,0.317-2.061-0.141
			c-0.479-0.308-0.777-0.592-0.8-1.149c-0.004-0.08-0.022-0.159-0.036-0.239c-0.099-0.573-0.114-0.634-0.694-0.678
			c-0.719-0.055-1.446-0.08-2.165-0.03c-0.917,0.064-0.944,0.099-1.027,0.974c-0.052,0.543-0.339,0.792-0.767,1.096
			C10.071,5.637,9.409,5.71,8.666,5.271C8.401,5.116,8.195,5.194,8.047,5.428C7.605,6.129,7.125,6.812,6.752,7.549
			c-0.368,0.726-0.343,0.786,0.319,1.26C7.563,9.162,7.682,9.556,7.7,10.154c0.023,0.772-0.112,1.352-0.821,1.732
			c-0.383,0.205-0.415,0.527-0.222,0.888c0.341,0.638,0.644,1.3,1.041,1.899c0.516,0.782,0.558,0.784,1.423,0.419
			c0.459-0.193,0.796-0.169,1.254,0.092c0.716,0.408,1.298,0.803,1.235,1.739c-0.02,0.294,0.175,0.468,0.499,0.522
			c0.827,0.141,1.649,0.209,2.481,0.05c0.758-0.146,0.782-0.134,0.874-0.854c0.075-0.595,0.345-0.936,0.88-1.274
			c0.705-0.449,1.293-0.501,1.979-0.107c0.277,0.158,0.492,0.08,0.701-0.159c0.645-0.742,1.104-1.581,1.432-2.503
			c0.092-0.258,0.099-0.468-0.17-0.618c-0.742-0.422-1.016-1.004-0.938-1.898c0.045-0.536,0.11-0.913,0.559-1.2
			c0.158-0.101,0.306-0.222,0.441-0.351C20.432,8.441,20.491,8.326,20.534,8.264z"/>
		
			<linearGradient id="SVGID_1_" gradientUnits="userSpaceOnUse" x1="30.2427" y1="779.9199" x2="30.2427" y2="770.793" gradientTransform="matrix(1 0 0 1 -16.7197 -765.8906)">
			<stop  offset="0" style="stop-color:#FFFFFF"/>
			<stop  offset="1" style="stop-color:#A3A3A3"/>
		</linearGradient>
		<path fill="url(#SVGID_1_)" d="M20.534,8.264c-0.043,0.062-0.103,0.178-0.189,0.261c-0.137,0.129-0.283,0.25-0.439,0.351
			c-0.447,0.287-0.516,0.664-0.561,1.2c-0.074,0.896,0.197,1.478,0.939,1.898c0.268,0.15,0.262,0.36,0.17,0.618
			c-0.326,0.923-0.787,1.762-1.431,2.502c-0.211,0.241-0.424,0.319-0.701,0.161c-0.688-0.396-1.272-0.342-1.979,0.106
			c-0.533,0.342-0.804,0.683-0.879,1.275c-0.092,0.723-0.115,0.709-0.874,0.854c-0.832,0.159-1.654,0.091-2.481-0.05
			c-0.324-0.058-0.519-0.229-0.499-0.522c0.063-0.937-0.519-1.331-1.235-1.739c-0.458-0.261-0.795-0.285-1.254-0.092
			c-0.865,0.365-0.907,0.363-1.423-0.419c-0.396-0.601-0.699-1.263-1.041-1.899c-0.193-0.359-0.161-0.683,0.222-0.888
			c0.709-0.381,0.844-0.96,0.821-1.732C7.681,9.553,7.562,9.159,7.07,8.807c-0.662-0.474-0.687-0.534-0.319-1.26
			c0.374-0.737,0.853-1.42,1.295-2.121c0.149-0.232,0.355-0.31,0.619-0.154c0.744,0.438,1.406,0.365,2.131-0.149
			c0.427-0.303,0.715-0.553,0.767-1.096c0.083-0.875,0.11-0.91,1.027-0.974c0.719-0.05,1.446-0.025,2.165,0.03
			c0.58,0.044,0.597,0.104,0.694,0.678C15.463,3.841,15.48,3.92,15.484,4c0.022,0.557,0.32,0.841,0.8,1.149
			c0.713,0.458,1.338,0.574,2.061,0.141c0.238-0.144,0.43-0.125,0.631,0.106c0.676,0.783,1.188,1.654,1.496,2.643
			C20.486,8.089,20.5,8.141,20.534,8.264z M13.554,13.261c1.365,0.009,2.917-1.043,2.971-2.999c0.043-1.593-1.394-2.983-2.991-2.992
			c-1.64-0.009-3.029,1.406-2.998,3.054C10.566,11.96,11.92,13.277,13.554,13.261z"/>
		<path display="none" fill="none" d="M13.554,13.261c-1.634,0.017-2.988-1.301-3.019-2.937c-0.031-1.647,1.358-3.062,2.998-3.054
			c1.599,0.009,3.035,1.399,2.99,2.992C16.471,12.218,14.919,13.27,13.554,13.261z"/>
	</g>
</g>
<g id="Layer_2">
	<polygon points="10.307,0 12.74,7.488 20.614,7.488 14.244,12.116 16.676,19.605 10.307,14.977 3.937,19.605 6.37,12.116 0,7.488 
		7.874,7.488 	"/>
	
		<linearGradient id="SVGID_2_" gradientUnits="userSpaceOnUse" x1="18.6665" y1="32.7529" x2="18.6665" y2="47.5671" gradientTransform="matrix(1 0 0 -1 -8.3599 51.0547)">
		<stop  offset="0" style="stop-color:#FFFFFF"/>
		<stop  offset="1" style="stop-color:#A8A8A8"/>
	</linearGradient>
	<polygon fill="url(#SVGID_2_)" points="10.307,0.521 12.74,8.01 20.614,8.01 14.244,12.638 16.676,20.126 10.307,15.498 
		3.937,20.126 6.37,12.638 0,8.01 7.874,8.01 	"/>
</g>
</svg>
